
<svg viewBox="0 0 346 34" version="1.1" xmlns="http://www.w3.org/2000/svg" xmlns:xlink="http://www.w3.org/1999/xlink">
 <g fill="currentColor" fill-rule="nonzero">
    <path d="M125.9 12.02L126.14 12.02 126.95 11.16 126.9 11.01z" transform="translate(-102.000000, -93.000000) translate(102.000000, 93.000000)"/>
    <path d="M124.55 12.02L124.79 12.02 126.61 10.2 126.57 10.06 126.57 10.01z" transform="translate(-102.000000, -93.000000) translate(102.000000, 93.000000)"/>
    <path d="M127.24 12.02L127.28 12.02 127.24 11.97z" transform="translate(-102.000000, -93.000000) translate(102.000000, 93.000000)"/>
    <path d="M122.45 33.19L126.57 29.07 126.57 28.83 122.21 33.19z" transform="translate(-102.000000, -93.000000) translate(102.000000, 93.000000)"/>
    <path d="M123.79 33.19L126.57 30.41 126.57 30.17 123.55 33.19z" transform="translate(-102.000000, -93.000000) translate(102.000000, 93.000000)"/>
    <path d="M121.06 33.19L126.57 27.73 126.57 27.49 120.82 33.19z" transform="translate(-102.000000, -93.000000) translate(102.000000, 93.000000)"/>
    <path d="M146.1 28.92L141.84 33.19 142.08 33.19 146.1 29.16z" transform="translate(-102.000000, -93.000000) translate(102.000000, 93.000000)"/>
    <path d="M146.1 30.26L143.18 33.19 143.42 33.19 146.1 30.5z" transform="translate(-102.000000, -93.000000) translate(102.000000, 93.000000)"/>
    <path d="M146.1 27.58L140.45 33.19 140.69 33.19 146.1 27.82z" transform="translate(-102.000000, -93.000000) translate(102.000000, 93.000000)"/>
    <path d="M167.37 31.17L165.31 33.19 165.55 33.19 167.46 31.32z" transform="translate(-102.000000, -93.000000) translate(102.000000, 93.000000)"/>
    <path d="M166.65 33.19L166.89 33.19 167.89 32.23 167.8 32.04z" transform="translate(-102.000000, -93.000000) translate(102.000000, 93.000000)"/>
    <path d="M167.99 33.19L168.23 33.19 168.32 33.14 168.23 32.95z" transform="translate(-102.000000, -93.000000) translate(102.000000, 93.000000)"/>
    <path d="M153.19 33.19L153.43 33.19 154.01 32.66 153.91 32.47z" transform="translate(-102.000000, -93.000000) translate(102.000000, 93.000000)"/>
    <path d="M153.96 31.13L151.85 33.19 152.09 33.19 153.86 31.41z" transform="translate(-102.000000, -93.000000) translate(102.000000, 93.000000)"/>
    <path d="M175.17 33.23L175.41 33.23 176.37 32.28 176.27 32.08z" transform="translate(-102.000000, -93.000000) translate(102.000000, 93.000000)"/>
    <path d="M176.51 33.23L176.66 33.23 176.61 33.09z" transform="translate(-102.000000, -93.000000) translate(102.000000, 93.000000)"/>
    <path d="M176.03 30.98L173.78 33.23 174.02 33.23 176.03 31.22z" transform="translate(-102.000000, -93.000000) translate(102.000000, 93.000000)"/>
    <path d="M181.68 21.55L186.43 16.81 186.43 16.57 181.45 21.55z" transform="translate(-102.000000, -93.000000) translate(102.000000, 93.000000)"/>
    <path d="M183.03 21.55L186.43 18.15 186.43 17.91 182.79 21.55z" transform="translate(-102.000000, -93.000000) translate(102.000000, 93.000000)"/>
    <path d="M56.32 7.71L56.51 7.76 57.03 7.23 57.03 6.99z" transform="translate(-102.000000, -93.000000) translate(102.000000, 93.000000)"/>
    <path d="M55.45 7.47L56.89 6.08 56.84 5.84 55.26 7.42z" transform="translate(-102.000000, -93.000000) translate(102.000000, 93.000000)"/>
    <path d="M55.26 33.23L56.41 32.04 56.46 31.8 55.02 33.23z" transform="translate(-102.000000, -93.000000) translate(102.000000, 93.000000)"/>
    <path d="M53.92 33.23L56.7 30.46 56.75 30.17 53.68 33.23z" transform="translate(-102.000000, -93.000000) translate(102.000000, 93.000000)"/>
    <path d="M57.0338028,27.4394366 L56.6985915,27.5352113 L54.7830986,29.4507042 L54.9746479,28.1098592 L55.1183099,27.9661972 L55.0704225,27.9661972 L55.0225352,27.9661972 L55.4056338,25.6676056 L53.2985915,26.2901408 L46.0676056,26.2901408 L46.5464789,25.8112676 L46.5464789,25.571831 L45.828169,26.2901408 L45.3492958,26.2901408 L45.0619718,26.0028169 L46.5464789,24.5183099 L46.5464789,24.2788732 L44.9183099,25.9070423 L44.7267606,25.715493 L44.7267606,24.9971831 L46.5464789,23.1774648 L46.5464789,22.9380282 L44.7267606,24.7577465 L44.7267606,23.656338 L46.5464789,21.8366197 L46.5464789,21.5492958 L44.7267606,23.3690141 L44.7267606,22.2676056 L48.4140845,18.5802817 L49.228169,18.8676056 L47.9352113,20.1605634 L48.1746479,20.1605634 L49.371831,18.9633803 L49.8985915,19.1549296 L49.8985915,18.4366197 L51.7183099,16.6169014 L51.7183099,16.3774648 L49.8985915,18.1971831 L49.8985915,17.0957746 L51.7183099,15.2760563 L51.7183099,15.0366197 L49.8985915,16.856338 L49.8985915,15.7549296 L51.0957746,14.5577465 L50.7605634,14.6535211 L49.8985915,15.515493 L49.8985915,12.6901408 L47.8873239,13.3605634 L45.5887324,13.3605634 L46.4507042,12.4985915 L46.4507042,12.2591549 L45.3492958,13.3605634 L45.2535211,13.3605634 L44.7267606,12.8338028 L46.4507042,11.1098592 L46.4507042,10.8704225 L44.6309859,12.6901408 L44.6309859,11.4929577 L46.4507042,9.67323944 L46.4507042,9.43380282 L44.6309859,11.2535211 L44.6309859,10.1521127 L46.4507042,8.33239437 L46.4507042,8.09295775 L44.6309859,9.91267606 L44.6309859,8.81126761 L47.7915493,5.65070423 L48.8929577,5.65070423 L47.2169014,7.32676056 L47.456338,7.32676056 L49.1323944,5.65070423 L50.2338028,5.65070423 L48.5577465,7.32676056 L48.7971831,7.32676056 L50.4732394,5.65070423 L51.5746479,5.65070423 L49.8985915,7.32676056 L50.1380282,7.32676056 L51.8140845,5.65070423 L52.915493,5.65070423 L51.2394366,7.32676056 L51.4788732,7.32676056 L53.1549296,5.65070423 L53.1549296,5.65070423 L54.0169014,5.89014085 L52.5802817,7.32676056 L52.8197183,7.32676056 L54.2084507,5.93802817 L55.0704225,6.17746479 L53.9211268,7.32676056 L54.1605634,7.32676056 L55.2619718,6.22535211 L55.3098592,6.22535211 L55.3098592,6.17746479 L56.6028169,4.88450704 L56.5549296,4.69295775 L55.2619718,5.98591549 L55.1183099,5.02816901 L56.4112676,3.73521127 L56.3633803,3.54366197 L55.0704225,4.83661972 L54.9267606,3.87887324 L56.2197183,2.58591549 L56.171831,2.3943662 L54.8788732,3.68732394 L54.7352113,2.72957746 L55.2140845,2.25070423 L55.0704225,2.25070423 L54.7830986,2.53802817 L54.4478873,0.526760563 L38.9323944,0.526760563 L39.6028169,2.49014085 L39.6028169,29.4985915 L38.9323944,31.5098592 L41.9014085,31.5098592 L40.9915493,32.4197183 L40.8957746,32.7549296 L42.1408451,31.5098592 L43.2422535,31.5098592 L41.5661972,33.1859155 L41.8056338,33.1859155 L43.4816901,31.5098592 L44.5830986,31.5098592 L42.9070423,33.1859155 L43.1464789,33.1859155 L44.8225352,31.5098592 L45.9239437,31.5098592 L44.2478873,33.1859155 L44.4873239,33.1859155 L46.1633803,31.5098592 L47.2647887,31.5098592 L45.5887324,33.1859155 L45.828169,33.1859155 L47.5042254,31.5098592 L48.6056338,31.5098592 L46.9295775,33.1859155 L47.1690141,33.1859155 L48.8450704,31.5098592 L49.9464789,31.5098592 L48.2704225,33.1859155 L48.5098592,33.1859155 L50.1859155,31.5098592 L51.2873239,31.5098592 L49.6112676,33.1859155 L49.8507042,33.1859155 L51.5267606,31.5098592 L52.628169,31.5098592 L50.9521127,33.1859155 L51.1915493,33.1859155 L52.8676056,31.5098592 L53.9690141,31.5098592 L52.2929577,33.1859155 L52.5323944,33.1859155 L54.2084507,31.5098592 L54.3521127,31.5098592 L54.4,31.3183099 L56.8901408,28.828169 L56.9380282,28.5408451 L54.4478873,31.0309859 L54.6394366,29.6901408 L57.0338028,27.4394366 Z M45.3014085,5.65070423 L46.2591549,5.65070423 L44.6788732,7.23098592 L44.6788732,6.27323944 L45.3014085,5.65070423 Z M45.3014085,18.4366197 L45.5887324,18.4366197 L44.6788732,19.3464789 L44.6788732,19.0112676 L45.3014085,18.4366197 Z M47.9352113,18.4366197 L48.2225352,18.5323944 L44.7267606,22.028169 L44.7267606,20.9267606 L47.2169014,18.4366197 L47.9352113,18.4366197 Z M44.6788732,20.6873239 L44.6788732,19.5859155 L45.828169,18.4366197 L46.9295775,18.4366197 L44.6788732,20.6873239 Z M44.6788732,8.57183099 L44.6788732,7.47042254 L46.4985915,5.65070423 L47.6,5.65070423 L44.6788732,8.57183099 Z" transform="translate(-102.000000, -93.000000) translate(102.000000, 93.000000)"/>
    <path d="M51.72 20.64L51.72 20.4 51.43 20.69 51.57 20.74z" transform="translate(-102.000000, -93.000000) translate(102.000000, 93.000000)"/>
    <path d="M51.72 17.72L49.28 20.16 49.52 20.16 51.72 17.96z" transform="translate(-102.000000, -93.000000) translate(102.000000, 93.000000)"/>
    <path d="M51.72 19.06L50.38 20.35 50.57 20.4 51.72 19.3z" transform="translate(-102.000000, -93.000000) translate(102.000000, 93.000000)"/>
    <path d="M74.9 7.71L75.09 7.76 75.61 7.23 75.61 6.99z" transform="translate(-102.000000, -93.000000) translate(102.000000, 93.000000)"/>
    <path d="M74.03 7.47L75.42 6.08 75.42 5.84 73.84 7.42z" transform="translate(-102.000000, -93.000000) translate(102.000000, 93.000000)"/>
    <path d="M73.84 33.23L74.99 32.04 75.04 31.8 73.6 33.23z" transform="translate(-102.000000, -93.000000) translate(102.000000, 93.000000)"/>
    <path d="M72.5 33.23L75.28 30.46 75.33 30.17 72.26 33.23z" transform="translate(-102.000000, -93.000000) translate(102.000000, 93.000000)"/>
    <path d="M75.6140845,27.4394366 L75.2788732,27.5352113 L73.3633803,29.4507042 L73.5549296,28.1098592 L73.6985915,27.9661972 L73.6507042,27.9661972 L73.6028169,27.9661972 L73.9859155,25.6676056 L71.8788732,26.2901408 L64.6478873,26.2901408 L65.1267606,25.8112676 L65.1267606,25.571831 L64.4084507,26.2901408 L63.9295775,26.2901408 L63.6422535,26.0028169 L65.1267606,24.5183099 L65.1267606,24.2788732 L63.4985915,25.9070423 L63.3070423,25.715493 L63.3070423,24.9971831 L65.1267606,23.1774648 L65.1267606,22.9380282 L63.3070423,24.7577465 L63.3070423,23.656338 L65.1267606,21.8366197 L65.1267606,21.5492958 L63.3070423,23.3690141 L63.3070423,22.2676056 L66.9943662,18.5802817 L67.8084507,18.8676056 L66.515493,20.1605634 L66.7549296,20.1605634 L67.9521127,18.9633803 L68.4788732,19.1549296 L68.4788732,18.4366197 L70.2985915,16.6169014 L70.2985915,16.3774648 L68.4788732,18.1971831 L68.4788732,17.0957746 L70.2985915,15.2760563 L70.2985915,15.0366197 L68.4788732,16.856338 L68.4788732,15.7549296 L69.6760563,14.5577465 L69.3408451,14.6535211 L68.4788732,15.515493 L68.4788732,12.6901408 L66.4676056,13.3605634 L64.1690141,13.3605634 L65.0309859,12.4985915 L65.0309859,12.2591549 L63.9295775,13.3605634 L63.8338028,13.3605634 L63.3070423,12.8338028 L65.0309859,11.1098592 L65.0309859,10.8704225 L63.2112676,12.6901408 L63.2112676,11.4929577 L65.0309859,9.67323944 L65.0309859,9.43380282 L63.2112676,11.2535211 L63.2112676,10.1521127 L65.0309859,8.33239437 L65.0309859,8.09295775 L63.2112676,9.91267606 L63.2112676,8.81126761 L66.371831,5.65070423 L67.4732394,5.65070423 L65.7971831,7.32676056 L66.0366197,7.32676056 L67.7126761,5.65070423 L68.8140845,5.65070423 L67.1380282,7.32676056 L67.3774648,7.32676056 L69.0535211,5.65070423 L70.1549296,5.65070423 L68.4788732,7.32676056 L68.7183099,7.32676056 L70.3943662,5.65070423 L71.4957746,5.65070423 L69.8197183,7.32676056 L70.0591549,7.32676056 L71.7352113,5.65070423 L71.7352113,5.65070423 L72.5971831,5.89014085 L71.1605634,7.32676056 L71.4,7.32676056 L72.7887324,5.93802817 L73.6507042,6.17746479 L72.5014085,7.32676056 L72.7408451,7.32676056 L73.8422535,6.22535211 L73.8901408,6.22535211 L73.8901408,6.17746479 L75.1830986,4.88450704 L75.1352113,4.69295775 L73.8422535,5.98591549 L73.6985915,5.02816901 L74.9915493,3.73521127 L74.943662,3.54366197 L73.6507042,4.83661972 L73.5070423,3.87887324 L74.8,2.58591549 L74.7521127,2.3943662 L73.4591549,3.68732394 L73.315493,2.72957746 L73.7943662,2.25070423 L73.5549296,2.25070423 L73.2676056,2.53802817 L72.9323944,0.526760563 L57.4647887,0.526760563 L58.1352113,2.49014085 L58.1352113,29.4985915 L57.4647887,31.5098592 L60.4338028,31.5098592 L59.5239437,32.4197183 L59.428169,32.7549296 L60.6732394,31.5098592 L61.7746479,31.5098592 L60.0985915,33.1859155 L60.3380282,33.1859155 L62.0140845,31.5098592 L63.115493,31.5098592 L61.4394366,33.1859155 L61.6788732,33.1859155 L63.3549296,31.5098592 L64.456338,31.5098592 L62.7802817,33.1859155 L63.0197183,33.1859155 L64.6957746,31.5098592 L65.7971831,31.5098592 L64.1211268,33.1859155 L64.3605634,33.1859155 L66.0366197,31.5098592 L67.1380282,31.5098592 L65.4619718,33.1859155 L65.7014085,33.1859155 L67.3774648,31.5098592 L68.4788732,31.5098592 L66.8028169,33.1859155 L67.0422535,33.1859155 L68.7183099,31.5098592 L69.8197183,31.5098592 L68.143662,33.1859155 L68.3830986,33.1859155 L70.0591549,31.5098592 L71.1605634,31.5098592 L69.484507,33.1859155 L69.7239437,33.1859155 L71.4,31.5098592 L72.5014085,31.5098592 L70.8253521,33.1859155 L71.0647887,33.1859155 L72.7408451,31.5098592 L72.884507,31.5098592 L72.9323944,31.3183099 L75.4225352,28.828169 L75.4704225,28.5408451 L72.9802817,31.0309859 L73.171831,29.6901408 L75.6140845,27.4394366 Z M63.8816901,5.65070423 L64.8394366,5.65070423 L63.2591549,7.23098592 L63.2591549,6.27323944 L63.8816901,5.65070423 Z M63.8816901,18.4366197 L64.1690141,18.4366197 L63.2591549,19.3464789 L63.2591549,19.0112676 L63.8816901,18.4366197 Z M66.515493,18.4366197 L66.8028169,18.5323944 L63.3070423,22.028169 L63.3070423,20.9267606 L65.7971831,18.4366197 L66.515493,18.4366197 Z M63.2591549,20.6873239 L63.2591549,19.5859155 L64.4084507,18.4366197 L65.5098592,18.4366197 L63.2591549,20.6873239 Z M63.2591549,8.57183099 L63.2591549,7.47042254 L65.0788732,5.65070423 L66.1802817,5.65070423 L63.2591549,8.57183099 Z" transform="translate(-102.000000, -93.000000) translate(102.000000, 93.000000)"/>
    <path d="M70.3 17.72L67.86 20.16 68.1 20.16 70.3 17.96z" transform="translate(-102.000000, -93.000000) translate(102.000000, 93.000000)"/>
    <path d="M70.3 19.06L68.96 20.35 69.15 20.4 70.3 19.3z" transform="translate(-102.000000, -93.000000) translate(102.000000, 93.000000)"/>
    <path d="M70.3 20.64L70.3 20.4 70.01 20.69 70.15 20.74z" transform="translate(-102.000000, -93.000000) translate(102.000000, 93.000000)"/>
    <path d="M83.85 31.89L82.56 33.23 82.8 33.23 83.95 32.08z" transform="translate(-102.000000, -93.000000) translate(102.000000, 93.000000)"/>
    <path d="M83.9 33.23L84.14 33.23 84.28 33.09 84.19 32.9z" transform="translate(-102.000000, -93.000000) translate(102.000000, 93.000000)"/>
    <path d="M83.66 30.74L81.22 33.23 81.46 33.23 83.66 30.98z" transform="translate(-102.000000, -93.000000) translate(102.000000, 93.000000)"/>
    <path d="M96.4 31.46L94.67 33.23 94.91 33.23 96.45 31.65z" transform="translate(-102.000000, -93.000000) translate(102.000000, 93.000000)"/>
    <path d="M96.3492958,30.2169014 L95.1521127,31.4140845 L94.8647887,30.6 L96.3492958,29.115493 L96.3492958,28.8760563 L94.8169014,30.4084507 L94.5295775,29.5943662 L94.5295775,29.5943662 L96.3492958,27.7746479 L96.3492958,27.5352113 L94.5295775,29.3549296 L94.5295775,28.2535211 L96.3492958,26.4338028 L96.3492958,26.1943662 L94.5295775,28.0140845 L94.5295775,26.9126761 L96.3492958,25.0929577 L96.3492958,24.8535211 L94.5295775,26.6732394 L94.5295775,25.571831 L96.3492958,23.7521127 L96.3492958,23.4647887 L94.5295775,25.284507 L94.5295775,24.1830986 L96.3492958,22.3633803 L96.3492958,22.1239437 L94.5295775,23.943662 L94.5295775,22.8422535 L96.3492958,21.0225352 L96.3492958,20.7830986 L94.5295775,22.6028169 L94.5295775,21.5014085 L96.3492958,19.6816901 L96.3492958,19.4422535 L94.5295775,21.2619718 L94.5295775,20.1605634 L96.3492958,18.3408451 L96.3492958,18.1014085 L94.5295775,19.9211268 L94.5295775,18.8197183 L96.3492958,17 L96.3492958,16.7605634 L94.5295775,18.5802817 L94.5295775,17.4788732 L96.3492958,15.6591549 L96.3492958,15.4197183 L94.5295775,17.2394366 L94.5295775,16.1380282 L96.3492958,14.3183099 L96.3492958,14.0788732 L94.5295775,15.8985915 L94.5295775,14.7971831 L96.3492958,12.9774648 L96.3492958,12.7380282 L94.5295775,14.5577465 L94.5295775,13.4084507 L96.3492958,11.5887324 L96.3492958,11.3492958 L94.5295775,13.1690141 L94.5295775,12.0676056 L96.3492958,10.2478873 L96.3492958,10.0084507 L94.5295775,11.828169 L94.5295775,10.7267606 L96.3492958,8.90704225 L96.3492958,8.66760563 L94.5295775,10.4873239 L94.5295775,9.38591549 L96.3492958,7.56619718 L96.3492958,7.32676056 L94.5295775,9.14647887 L94.5295775,8.04507042 L96.3492958,6.22535211 L96.3492958,5.98591549 L94.5295775,7.8056338 L94.5295775,6.70422535 L96.3492958,4.88450704 L96.3492958,4.64507042 L94.5295775,6.46478873 L94.5295775,5.36338028 L96.684507,3.2084507 L96.7802817,2.87323944 L94.5295775,5.12394366 L94.5295775,4.02253521 L96.2535211,2.29859155 L96.0140845,2.29859155 L94.5295775,3.78309859 L94.5295775,2.68169014 L94.9126761,2.29859155 L94.6732394,2.29859155 L94.5774648,2.3943662 L95.1521127,0.622535211 L88.6873239,0.622535211 L89.3577465,2.63380282 L89.3577465,17.0957746 L88.6873239,17.7661972 L88.3521127,16.9521127 L89.1661972,16.1380282 L89.1183099,15.9464789 L88.3042254,16.7605634 L87.9690141,15.9464789 L88.7830986,15.1323944 L88.7352113,14.9408451 L87.9211268,15.7549296 L87.5859155,14.9408451 L88.4,14.1267606 L88.3521127,13.9352113 L87.5380282,14.7492958 L87.2028169,13.9352113 L88.0169014,13.1211268 L87.9690141,12.9295775 L87.1549296,13.743662 L86.8197183,12.9295775 L87.6338028,12.115493 L87.5859155,11.9239437 L86.771831,12.7380282 L86.4366197,11.9239437 L87.2507042,11.1098592 L87.2028169,10.9183099 L86.3887324,11.7323944 L86.0535211,10.9183099 L86.8676056,10.1042254 L86.8197183,9.91267606 L86.0056338,10.7267606 L85.6704225,9.91267606 L86.484507,9.09859155 L86.4366197,8.90704225 L85.6225352,9.72112676 L85.2873239,8.90704225 L86.1014085,8.09295775 L86.0535211,7.90140845 L85.2394366,8.71549296 L84.9042254,7.90140845 L85.7183099,7.08732394 L85.6704225,6.89577465 L84.856338,7.70985915 L84.5211268,6.89577465 L85.3352113,6.08169014 L85.2873239,5.89014085 L84.4732394,6.70422535 L84.1380282,5.89014085 L84.9521127,5.07605634 L84.9042254,4.88450704 L84.0901408,5.69859155 L83.7549296,4.88450704 L84.5690141,4.07042254 L84.5211268,3.87887324 L83.7070423,4.69295775 L83.371831,3.87887324 L84.1859155,3.06478873 L84.1380282,2.87323944 L83.3239437,3.68732394 L82.9887324,2.87323944 L83.8028169,2.05915493 L83.7549296,1.86760563 L82.9408451,2.68169014 L82.6056338,1.86760563 L82.7971831,1.67605634 L82.5577465,1.67605634 L82.5098592,1.72394366 L81.8394366,0 L76.0929577,0 L76.7633803,2.01126761 L76.7633803,29.0197183 L76.0929577,30.9830986 L78.8704225,30.9830986 L78.2957746,31.5577465 L78.1521127,31.9408451 L79.0619718,31.0309859 L80.1633803,31.0309859 L78.4873239,32.7070423 L78.7267606,32.7070423 L80.4028169,31.0309859 L81.5042254,31.0309859 L79.828169,32.7070423 L80.0676056,32.7070423 L81.743662,31.0309859 L82.4619718,31.0309859 L82.2704225,30.5042254 L83.6112676,29.1633803 L83.6112676,28.9239437 L82.2225352,30.3126761 L81.9352113,29.4985915 L83.6112676,27.8225352 L83.6112676,27.5830986 L81.8873239,29.3070423 L81.7915493,29.0676056 L81.7915493,28.2535211 L83.6112676,26.4338028 L83.6112676,26.1943662 L81.7915493,28.0140845 L81.7915493,26.9126761 L83.6112676,25.0929577 L83.6112676,25.3802817 L81.7915493,27.2 L81.7915493,26.0985915 L83.6112676,24.2788732 L83.6112676,24.0394366 L81.7915493,25.8591549 L81.7915493,24.7577465 L83.6112676,22.9380282 L83.6112676,22.6985915 L81.7915493,24.5183099 L81.7915493,23.4169014 L83.6112676,21.5971831 L83.6112676,21.3577465 L81.7915493,23.1774648 L81.7915493,22.028169 L83.6112676,20.2084507 L83.6112676,19.9690141 L81.7915493,21.7887324 L81.7915493,20.6873239 L83.6112676,18.8676056 L83.6112676,18.6760563 L81.7915493,20.4957746 L81.7915493,19.3943662 L83.6112676,17.5746479 L83.6112676,17.3352113 L81.7915493,19.1549296 L81.7915493,18.0535211 L83.3239437,16.5211268 L89.3098592,31.5577465 L90.9380282,31.5577465 L90.6028169,31.8929577 L90.6507042,32.084507 L91.1774648,31.5577465 L92.2788732,31.5577465 L90.9859155,32.8507042 L91.0338028,33.0422535 L92.5183099,31.5577465 L93.6197183,31.5577465 L91.943662,33.2338028 L92.1830986,33.2338028 L93.8591549,31.5577465 L94.9605634,31.5577465 L93.284507,33.2338028 L93.5239437,33.2338028 L96.3014085,30.456338 L96.3014085,30.2169014 L96.3492958,30.2169014 Z M89.3577465,19.4422535 L89.1183099,18.8197183 L89.3577465,18.5802817 L89.3577465,19.4422535 Z M89.3577465,17.2394366 L89.3577465,18.3408451 L89.0704225,18.628169 L88.7352113,17.8140845 L89.3577465,17.2394366 Z M81.8394366,15.3239437 L82.6056338,14.5577465 L82.9408451,15.371831 L81.8873239,16.4253521 L81.8873239,15.3239437 L81.8394366,15.3239437 Z M82.5098592,14.4140845 L81.8394366,15.084507 L81.8394366,13.9830986 L82.2225352,13.6 L82.5098592,14.4140845 Z M81.8394366,13.743662 L81.8394366,12.6901408 L82.1267606,13.4084507 L81.8394366,13.743662 Z M81.8394366,17.7661972 L81.8394366,16.6647887 L82.9887324,15.515493 L83.3239437,16.3295775 L81.8394366,17.7661972 Z" transform="translate(-102.000000, -93.000000) translate(102.000000, 93.000000)"/>
    <path d="M96.01 33.23L96.25 33.23 96.78 32.66 96.73 32.47z" transform="translate(-102.000000, -93.000000) translate(102.000000, 93.000000)"/>
    <path d="M15.18 11.97L15.42 11.97 17.34 10.06 17.29 10.01 17.29 9.86z" transform="translate(-102.000000, -93.000000) translate(102.000000, 93.000000)"/>
    <path d="M16.52 11.97L16.76 11.97 17.67 11.06 17.57 10.92z" transform="translate(-102.000000, -93.000000) translate(102.000000, 93.000000)"/>
    <path d="M17.91 11.97L17.96 11.97 17.91 11.92z" transform="translate(-102.000000, -93.000000) translate(102.000000, 93.000000)"/>
    <path d="M13.03 33.23L17.29 28.92 17.29 28.68 12.79 33.23z" transform="translate(-102.000000, -93.000000) translate(102.000000, 93.000000)"/>
    <path d="M14.37 33.23L17.29 30.26 17.29 30.03 14.13 33.23z" transform="translate(-102.000000, -93.000000) translate(102.000000, 93.000000)"/>
    <path d="M11.64 33.23L17.29 27.58 17.29 27.34 11.4 33.23z" transform="translate(-102.000000, -93.000000) translate(102.000000, 93.000000)"/>
    <path d="M26.82 33.23L27.06 33.23 27.39 32.85 27.34 32.66z" transform="translate(-102.000000, -93.000000) translate(102.000000, 93.000000)"/>
    <path d="M27.01 31.65L25.43 33.23 25.67 33.23 27.06 31.85z" transform="translate(-102.000000, -93.000000) translate(102.000000, 93.000000)"/>
    <path d="M26.86 30.46L24.09 33.23 24.33 33.23 26.86 30.7z" transform="translate(-102.000000, -93.000000) translate(102.000000, 93.000000)"/>
    <path d="M36.92 31.17L34.86 33.23 35.1 33.23 36.97 31.37z" transform="translate(-102.000000, -93.000000) translate(102.000000, 93.000000)"/>
    <path d="M37.54 33.23L37.69 33.23 37.69 33.09z" transform="translate(-102.000000, -93.000000) translate(102.000000, 93.000000)"/>
    <path d="M36.2 33.23L36.44 33.23 37.35 32.32 37.3 32.13z" transform="translate(-102.000000, -93.000000) translate(102.000000, 93.000000)"/>
    <path d="M214.92 9.91L212.76 12.02 213 12.02 214.92 10.1 214.92 10.06z" transform="translate(-102.000000, -93.000000) translate(102.000000, 93.000000)"/>
    <path d="M214.34 12.02L215.25 11.11 215.21 10.97 214.1 12.02z" transform="translate(-102.000000, -93.000000) translate(102.000000, 93.000000)"/>
    <path d="M215.45 12.02L215.54 12.02 215.54 11.97z" transform="translate(-102.000000, -93.000000) translate(102.000000, 93.000000)"/>
    <path d="M209.27 33.28L214.92 27.63 214.92 27.39 209.03 33.28z" transform="translate(-102.000000, -93.000000) translate(102.000000, 93.000000)"/>
    <path d="M210.61 33.28L214.92 28.97 214.92 28.73 210.37 33.28z" transform="translate(-102.000000, -93.000000) translate(102.000000, 93.000000)"/>
    <path d="M211.95 33.28L214.92 30.31 214.92 30.07 211.71 33.28z" transform="translate(-102.000000, -93.000000) translate(102.000000, 93.000000)"/>
    <path d="M228.81 33.28L234.36 27.73 234.36 27.49 228.57 33.28z" transform="translate(-102.000000, -93.000000) translate(102.000000, 93.000000)"/>
    <path d="M230.15 33.28L234.36 29.07 234.36 28.83 229.91 33.28z" transform="translate(-102.000000, -93.000000) translate(102.000000, 93.000000)"/>
    <path d="M231.49 33.28L234.36 30.41 234.36 30.17 231.25 33.28z" transform="translate(-102.000000, -93.000000) translate(102.000000, 93.000000)"/>
    <path d="M248.54 24.42L248.77 24.42 253.23 19.92 253.42 19.54z" transform="translate(-102.000000, -93.000000) translate(102.000000, 93.000000)"/>
    <path d="M243.6 30.7L241.02 33.28 241.26 33.28 243.6 30.94z" transform="translate(-102.000000, -93.000000) translate(102.000000, 93.000000)"/>
    <path d="M250.12 24.42L252.27 22.22 252.46 21.84 249.88 24.42z" transform="translate(-102.000000, -93.000000) translate(102.000000, 93.000000)"/>
    <path d="M251.36 24.42L251.5 24.14 251.22 24.42z" transform="translate(-102.000000, -93.000000) translate(102.000000, 93.000000)"/>
    <path d="M243.79 31.85L242.36 33.28 242.6 33.28 243.84 32.04z" transform="translate(-102.000000, -93.000000) translate(102.000000, 93.000000)"/>
    <path d="M243.7 33.28L243.94 33.28 244.18 33.04 244.13 32.9z" transform="translate(-102.000000, -93.000000) translate(102.000000, 93.000000)"/>
    <path d="M260.99 30.74L258.45 33.28 258.69 33.28 260.99 30.98z" transform="translate(-102.000000, -93.000000) translate(102.000000, 93.000000)"/>
    <path d="M261.18 31.89L259.79 33.28 260.03 33.28 261.23 32.08z" transform="translate(-102.000000, -93.000000) translate(102.000000, 93.000000)"/>
    <path d="M261.13 33.28L261.37 33.28 261.56 33.09 261.51 32.9z" transform="translate(-102.000000, -93.000000) translate(102.000000, 93.000000)"/>
    <path d="M280.91 16.43L275.78 21.6 276.02 21.6 280.91 16.66z" transform="translate(-102.000000, -93.000000) translate(102.000000, 93.000000)"/>
    <path d="M280.91 17.77L277.12 21.6 277.36 21.6 280.91 18.01z" transform="translate(-102.000000, -93.000000) translate(102.000000, 93.000000)"/>
    <path d="M270.56 30.89L268.17 33.28 268.41 33.28 270.56 31.13z" transform="translate(-102.000000, -93.000000) translate(102.000000, 93.000000)"/>
    <path d="M269.51 33.28L269.75 33.28 270.85 32.18 270.75 31.99z" transform="translate(-102.000000, -93.000000) translate(102.000000, 93.000000)"/>
    <path d="M270.85 33.28L271.09 33.28 271.19 33.19 271.09 32.99z" transform="translate(-102.000000, -93.000000) translate(102.000000, 93.000000)"/>
    <path d="M285.7 33.28L287.71 31.27 287.75 30.98 285.46 33.28z" transform="translate(-102.000000, -93.000000) translate(102.000000, 93.000000)"/>
    <path d="M286.8 33.28L287.04 33.28 287.71 32.61 287.66 32.42z" transform="translate(-102.000000, -93.000000) translate(102.000000, 93.000000)"/>
    <path d="M301.12 31.22L301.07 31.08 298.86 33.28 299.1 33.28 301.12 31.27z" transform="translate(-102.000000, -93.000000) translate(102.000000, 93.000000)"/>
    <path d="M301.5 31.99L300.21 33.28 300.45 33.28 301.59 32.13z" transform="translate(-102.000000, -93.000000) translate(102.000000, 93.000000)"/>
    <path d="M301.55 33.28L301.79 33.28 302.03 33.04 301.93 32.9z" transform="translate(-102.000000, -93.000000) translate(102.000000, 93.000000)"/>
    <path d="M309.78 30.98L307.53 33.28 307.77 33.28 309.78 31.22z" transform="translate(-102.000000, -93.000000) translate(102.000000, 93.000000)"/>
    <path d="M308.87 33.28L309.11 33.28 310.12 32.28 310.02 32.08z" transform="translate(-102.000000, -93.000000) translate(102.000000, 93.000000)"/>
    <path d="M310.21 33.28L310.45 33.28 310.36 33.09z" transform="translate(-102.000000, -93.000000) translate(102.000000, 93.000000)"/>
    <path d="M322.43 30.41L319.6 33.28 319.84 33.28 322.43 30.65z" transform="translate(-102.000000, -93.000000) translate(102.000000, 93.000000)"/>
    <path d="M322.57 31.65L320.94 33.28 321.18 33.28 322.62 31.8z" transform="translate(-102.000000, -93.000000) translate(102.000000, 93.000000)"/>
    <path d="M322.28 33.28L322.52 33.28 322.95 32.85 322.9 32.66z" transform="translate(-102.000000, -93.000000) translate(102.000000, 93.000000)"/>
    <path d="M344.932394,3.49577465 L345.411268,2.77746479 L340.71831,7.47042254 L341.340845,5.74647887 L344.740845,2.29859155 L344.501408,2.29859155 L341.43662,5.36338028 L342.059155,3.63943662 L343.4,2.29859155 L343.160563,2.29859155 L342.202817,3.30422535 L342.346479,2.82535211 L343.830986,0.526760563 L336.216901,0.526760563 L336.935211,1.77183099 L333.966197,11.4929577 L333.2,12.2591549 L332.960563,11.3971831 L333.966197,10.3915493 L333.91831,10.2 L332.912676,11.2056338 L332.673239,10.343662 L333.678873,9.33802817 L333.630986,9.14647887 L332.625352,10.1521127 L332.385915,9.29014085 L333.391549,8.28450704 L333.343662,8.09295775 L332.338028,9.09859155 L332.098592,8.23661972 L333.104225,7.23098592 L333.056338,7.03943662 L332.050704,8.04507042 L331.811268,7.18309859 L332.816901,6.17746479 L332.769014,5.98591549 L331.76338,6.9915493 L331.523944,6.12957746 L332.529577,5.12394366 L332.48169,4.93239437 L331.476056,5.93802817 L331.23662,5.07605634 L332.242254,4.07042254 L332.194366,3.87887324 L331.188732,4.88450704 L330.949296,4.02253521 L332.721127,2.25070423 L332.816901,2.10704225 L332.625352,2.10704225 L330.901408,3.83098592 L330.661972,2.96901408 L331.523944,2.10704225 L331.284507,2.10704225 L330.614085,2.77746479 L330.230986,1.58028169 L330.949296,0.335211268 L323.335211,0.335211268 L324.676056,2.87323944 L330.997183,20.7352113 L330.997183,29.5464789 L330.326761,31.5098592 L332.864789,31.5098592 L332.721127,31.6535211 L332.577465,32.0366197 L333.056338,31.5577465 L334.157746,31.5577465 L332.433803,33.3295775 L332.673239,33.3295775 L334.397183,31.5577465 L335.498592,31.5577465 L333.774648,33.3295775 L334.014085,33.3295775 L335.738028,31.5577465 L336.6,31.5577465 L336.408451,30.8873239 L337.892958,29.4028169 L337.892958,29.1633803 L336.360563,30.6957746 L336.121127,29.8338028 L337.892958,28.0619718 L337.892958,27.7746479 L336.073239,29.6422535 L336.073239,29.5943662 L336.073239,28.5408451 L337.940845,26.6732394 L337.940845,26.4338028 L336.073239,28.3014085 L336.073239,27.2 L337.940845,25.3323944 L337.940845,25.0929577 L336.073239,26.9605634 L336.073239,25.8591549 L337.940845,23.9915493 L337.940845,23.7521127 L336.073239,25.6197183 L336.073239,24.5183099 L337.940845,22.6507042 L337.940845,22.5070423 L337.988732,22.3633803 L336.073239,24.2788732 L336.073239,23.1774648 L338.56338,20.6873239 L338.707042,20.3042254 L336.073239,22.9380282 L336.073239,21.8366197 L339.28169,18.5802817 L339.425352,18.1971831 L336.073239,21.5492958 L336.073239,20.7352113 L336.216901,20.3042254 L340,16.4732394 L340.143662,16.0901408 L336.360563,19.9211268 L336.983099,18.1971831 L340.766197,14.3661972 L340.909859,13.9830986 L337.126761,17.8140845 L337.749296,16.0901408 L341.532394,12.2591549 L341.676056,11.8760563 L337.892958,15.7070423 L338.515493,13.9830986 L342.298592,10.1521127 L342.442254,9.76901408 L338.659155,13.6 L339.28169,11.8760563 L343.064789,8.04507042 L343.208451,7.66197183 L339.425352,11.4929577 L340.047887,9.76901408 L343.830986,5.93802817 L343.974648,5.55492958 L340.191549,9.38591549 L340.814085,7.66197183 L344.932394,3.49577465 Z M333.870423,11.8760563 L333.487324,13.1690141 L333.295775,12.4985915 L333.870423,11.8760563 Z" transform="translate(-102.000000, -93.000000) translate(102.000000, 93.000000)"/>
    <path d="M337.89 30.46L335.12 33.28 335.35 33.28 337.89 30.7z" transform="translate(-102.000000, -93.000000) translate(102.000000, 93.000000)"/>
    <path d="M338.04 31.7L336.46 33.28 336.7 33.28 338.08 31.89z" transform="translate(-102.000000, -93.000000) translate(102.000000, 93.000000)"/>
    <path d="M337.8 33.28L338.04 33.28 338.37 32.95 338.32 32.75z" transform="translate(-102.000000, -93.000000) translate(102.000000, 93.000000)"/>
    <path d="M15.4676056,18.628169 L17.4788732,16.6169014 L17.2394366,16.6169014 L15.4676056,18.3887324 L15.4676056,17.2873239 L16.1380282,16.6169014 L15.8985915,16.6169014 L15.4676056,17.0478873 L15.4676056,16.9521127 L16.1380282,14.8929577 L7.75774648,14.8929577 L8.90704225,20.1126761 L10.3915493,20.1126761 L10.3915493,25.715493 L9.81690141,26.3380282 L6.51267606,26.3380282 L7.08732394,25.7633803 L7.08732394,25.5239437 L6.22535211,26.2901408 L5.7943662,26.2901408 L5.45915493,25.9549296 L7.03943662,24.3746479 L7.03943662,24.1352113 L5.36338028,25.8112676 L5.21971831,25.6676056 L5.21971831,24.8056338 L7.03943662,22.9859155 L7.03943662,22.7464789 L5.21971831,24.5661972 L5.21971831,23.4647887 L7.03943662,21.6450704 L7.03943662,21.4056338 L5.21971831,23.2253521 L5.21971831,22.1239437 L7.03943662,20.3042254 L7.03943662,20.1126761 L5.21971831,21.9323944 L5.21971831,20.8309859 L7.03943662,19.0112676 L7.03943662,18.771831 L5.21971831,20.5915493 L5.21971831,19.4901408 L7.03943662,17.6704225 L7.03943662,17.4309859 L5.21971831,19.2507042 L5.21971831,18.1492958 L7.03943662,16.3295775 L7.03943662,16.0901408 L5.21971831,17.9098592 L5.21971831,16.7605634 L7.03943662,14.9408451 L7.03943662,14.7014085 L5.21971831,16.5211268 L5.21971831,15.4197183 L7.03943662,13.6 L7.03943662,13.4084507 L5.21971831,15.228169 L5.21971831,14.1267606 L7.03943662,12.3070423 L7.03943662,12.0676056 L5.21971831,13.8873239 L5.21971831,12.7859155 L7.03943662,10.9661972 L7.03943662,10.7267606 L5.21971831,12.5464789 L5.21971831,11.4450704 L7.03943662,9.62535211 L7.03943662,9.38591549 L5.21971831,11.2056338 L5.21971831,10.056338 L7.03943662,8.23661972 L7.03943662,7.9971831 L5.21971831,9.81690141 L5.21971831,8.71549296 L8.28450704,5.65070423 L9.38591549,5.65070423 L7.70985915,7.32676056 L7.94929577,7.32676056 L9.62535211,5.65070423 L9.76901408,5.65070423 L10.2478873,6.12957746 L9.05070423,7.32676056 L9.29014085,7.32676056 L10.343662,6.27323944 L10.343662,8.28450704 L9.67323944,10.2478873 L12.8816901,10.2478873 L11.6366197,11.4929577 L11.4929577,11.828169 L13.0732394,10.2478873 L14.1746479,10.2478873 L12.4985915,11.971831 L12.7380282,11.971831 L14.4140845,10.2957746 L15.515493,10.2957746 L13.8394366,11.971831 L14.0788732,11.971831 L15.7549296,10.2957746 L16.0901408,10.2957746 L15.9943662,10.0084507 L17.2394366,8.76338028 L17.2394366,8.52394366 L15.9464789,9.81690141 L15.6591549,9.0028169 L17.2394366,7.42253521 L17.2394366,7.18309859 L15.6112676,8.81126761 L15.4676056,8.33239437 L15.4676056,7.90140845 L17.2873239,6.08169014 L17.2873239,5.84225352 L15.4676056,7.66197183 L15.4676056,6.56056338 L17.2394366,4.78873239 L17.0957746,4.69295775 L15.4676056,6.32112676 L15.4676056,5.21971831 L16.5690141,4.11830986 L16.4253521,4.02253521 L15.4676056,4.98028169 L15.4676056,3.83098592 L15.8985915,3.4 L15.8028169,3.30422535 L15.515493,3.5915493 L15.515493,3.11267606 L15.228169,2.82535211 L15.2760563,2.77746479 L15.1323944,2.68169014 L15.084507,2.72957746 L12.9295775,0.574647887 L2.63380282,0.574647887 L0,3.06478873 L0,28.9239437 L2.58591549,31.5098592 L3.68732394,31.5098592 L3.2084507,31.9887324 L3.35211268,32.084507 L3.97464789,31.4619718 L5.07605634,31.4619718 L3.92676056,32.6112676 L4.07042254,32.7070423 L5.36338028,31.4140845 L6.46478873,31.4140845 L4.78873239,33.0901408 L5.02816901,33.0901408 L6.70422535,31.4140845 L7.8056338,31.4140845 L6.12957746,33.0901408 L6.36901408,33.0901408 L8.04507042,31.4140845 L9.09859155,31.4140845 L7.42253521,33.0901408 L7.66197183,33.0901408 L9.33802817,31.4140845 L10.4394366,31.4140845 L8.76338028,33.0901408 L9.0028169,33.0901408 L10.6788732,31.4140845 L11.7802817,31.4140845 L10.056338,33.2338028 L10.2957746,33.2338028 L11.971831,31.5577465 L12.9295775,31.5577465 L15.515493,28.971831 L15.515493,28.0619718 L17.3352113,26.2422535 L17.3352113,26.0028169 L15.515493,27.8225352 L15.515493,26.7211268 L17.3352113,24.9014085 L17.3352113,24.6619718 L15.515493,26.4816901 L15.515493,25.3802817 L17.3352113,23.5605634 L17.3352113,23.3211268 L15.515493,25.1408451 L15.515493,24.0394366 L17.3352113,22.2197183 L17.3352113,21.9802817 L15.515493,23.8 L15.515493,22.6985915 L17.3352113,20.8788732 L17.3352113,20.5915493 L15.515493,22.4112676 L15.515493,21.3098592 L17.3352113,19.4901408 L17.3352113,19.2507042 L15.4676056,21.0704225 L15.4676056,19.9690141 L17.4788732,17.9577465 L17.5746479,17.6225352 L15.4197183,19.7774648 L15.4197183,18.628169 L15.4676056,18.628169 Z M5.21971831,8.47605634 L5.21971831,7.37464789 L6.94366197,5.65070423 L8.04507042,5.65070423 L5.21971831,8.47605634 Z M5.7943662,5.65070423 L6.70422535,5.65070423 L5.21971831,7.13521127 L5.21971831,6.27323944 L5.7943662,5.65070423 Z" transform="translate(-102.000000, -93.000000) translate(102.000000, 93.000000)"/>
    <path d="M35.915493,31.5098592 L35.771831,31.1746479 L36.6816901,30.2647887 L36.6338028,30.0732394 L35.6760563,31.0309859 L35.3408451,30.2169014 L36.3943662,29.1633803 L36.3943662,29.0197183 L35.3408451,30.0732394 L35.1014085,29.4507042 L35.0535211,29.2591549 L36.2028169,28.1098592 L36.1549296,27.9183099 L35.0056338,29.0676056 L34.8140845,28.1577465 L35.9633803,27.0084507 L35.8676056,26.8169014 L34.7183099,27.9661972 L34.5267606,27.056338 L35.6760563,25.9070423 L35.628169,25.715493 L34.4788732,26.8647887 L34.2873239,25.9549296 L35.4366197,24.8056338 L35.3887324,24.6140845 L34.2394366,25.7633803 L34.0478873,24.9014085 L35.1971831,23.7521127 L35.1492958,23.5605634 L34,24.7098592 L33.8084507,23.8 L34.9577465,22.6507042 L34.9098592,22.4591549 L33.7605634,23.6084507 L33.5211268,22.6985915 L34.6704225,21.5492958 L34.6704225,21.5014085 L37.256338,18.915493 L37.256338,18.771831 L33.4732394,22.5070423 L33.2816901,21.5971831 L37.256338,17.6225352 L37.256338,17.3830986 L33.2338028,21.4056338 L33.0422535,20.4957746 L37.3042254,16.2338028 L37.3042254,15.9943662 L32.9943662,20.3042254 L32.8507042,19.7774648 L35.4366197,17.1915493 L35.4366197,16.7605634 L37.256338,14.9408451 L37.256338,14.7014085 L35.4366197,16.4732394 L35.4366197,15.371831 L37.256338,13.5521127 L37.256338,13.3126761 L35.4366197,15.1323944 L35.4366197,14.0309859 L37.256338,12.2112676 L37.256338,11.971831 L35.4366197,13.7915493 L35.4366197,12.6901408 L37.256338,10.8704225 L37.256338,10.6309859 L35.4366197,12.4507042 L35.4366197,11.3492958 L37.256338,9.52957746 L37.256338,9.29014085 L35.4366197,11.1098592 L35.4366197,10.0084507 L37.256338,8.18873239 L37.256338,7.94929577 L35.4366197,9.76901408 L35.4366197,8.66760563 L37.256338,6.84788732 L37.256338,6.6084507 L35.4366197,8.42816901 L35.4366197,7.32676056 L37.256338,5.50704225 L37.256338,5.26760563 L35.4366197,7.08732394 L35.4366197,5.98591549 L36.9211268,4.50140845 L36.7774648,4.4056338 L35.4366197,5.74647887 L35.4366197,4.64507042 L36.2507042,3.83098592 L36.1070423,3.73521127 L35.4366197,4.4056338 L35.4366197,3.30422535 L35.5802817,3.16056338 L35.4366197,3.01690141 L35.4366197,3.06478873 L34.8619718,2.53802817 L34.9098592,2.49014085 L34.7661972,2.3943662 L34.7661972,2.3943662 L32.8507042,0.574647887 L19.2985915,0.574647887 L19.9690141,2.58591549 L19.9690141,29.5943662 L19.2985915,31.5577465 L21.7408451,31.5577465 L21.6450704,31.6535211 L21.5492958,31.9887324 L22.028169,31.5098592 L23.1295775,31.5098592 L21.4535211,33.1859155 L21.6929577,33.1859155 L23.3690141,31.5098592 L24.4704225,31.5098592 L22.7943662,33.1859155 L22.9859155,33.1859155 L24.6619718,31.5098592 L25.6676056,31.5098592 L25.428169,30.743662 L26.8169014,29.3549296 L26.8169014,29.115493 L25.3802817,30.6 L25.0929577,29.7859155 L26.8647887,28.0140845 L26.8647887,27.7746479 L25.0450704,29.5943662 L25.0450704,29.5943662 L25.0450704,28.4929577 L26.8647887,26.6732394 L26.8647887,26.4338028 L25.0450704,28.2535211 L25.0450704,27.1521127 L26.8647887,25.3323944 L26.8647887,25.0929577 L25.0450704,26.9126761 L25.0450704,25.8112676 L26.8647887,23.9915493 L26.8647887,23.7521127 L25.0450704,25.571831 L25.0450704,24.4225352 L26.8647887,22.6028169 L26.8647887,22.3633803 L25.0450704,24.1830986 L25.0450704,23.0816901 L27.7746479,20.3521127 L27.9661972,21.2619718 L27.7746479,21.5014085 L28.0140845,21.5014085 L28.0140845,21.5014085 L29.9295775,29.6422535 L29.4985915,31.5577465 L32.515493,31.5577465 L31.4619718,32.6112676 L31.3661972,32.9464789 L32.7549296,31.5577465 L33.856338,31.5577465 L32.1802817,33.2338028 L32.4197183,33.2338028 L34.0957746,31.5577465 L35.1971831,31.5577465 L33.5211268,33.2338028 L33.7605634,33.2338028 L35.4366197,31.5577465 L35.915493,31.5577465 L35.915493,31.5098592 Z M25.0450704,8.28450704 L27.5352113,5.7943662 L28.6366197,5.7943662 L25.0450704,9.38591549 L25.0450704,8.28450704 Z M25.0450704,8.04507042 L25.0450704,6.94366197 L26.1943662,5.7943662 L27.2957746,5.7943662 L25.0450704,8.04507042 Z M25.0450704,6.70422535 L25.0450704,6.36901408 L25.6676056,5.7943662 L26.0028169,5.7943662 L25.0450704,6.70422535 Z M25.0450704,20.4 L25.6676056,19.7774648 L26.7690141,19.7774648 L25.0450704,21.5014085 L25.0450704,20.4 L25.0450704,20.4 Z M29.9295775,7.47042254 L30.3126761,7.08732394 L30.3126761,14.0788732 L29.6901408,14.6535211 L26.7690141,14.6535211 L26.8647887,14.5577465 L26.8647887,14.3183099 L26.5295775,14.6535211 L25.6676056,14.6535211 L25.5239437,14.5098592 L26.8647887,13.1690141 L26.8647887,12.9295775 L25.428169,14.3661972 L25.0929577,14.0309859 L25.0929577,13.6 L26.9126761,11.7802817 L26.9126761,11.5408451 L25.0450704,13.4084507 L25.0450704,12.3070423 L26.8647887,10.4873239 L26.8647887,10.2478873 L25.0450704,12.0676056 L25.0450704,10.9661972 L26.8647887,9.14647887 L26.8647887,8.90704225 L25.0450704,10.7267606 L25.0450704,9.62535211 L28.8760563,5.7943662 L29.6422535,5.7943662 L29.8338028,5.98591549 L28.3014085,7.51830986 L28.5408451,7.51830986 L29.9295775,6.12957746 L30.2169014,6.41690141 L30.2169014,6.94366197 L29.6901408,7.47042254 L29.9295775,7.47042254 Z M25.0450704,21.7408451 L27.0084507,19.7774648 L27.343662,19.7774648 L27.6788732,20.2084507 L25.0450704,22.8422535 L25.0450704,21.7408451 Z" transform="translate(-102.000000, -93.000000) translate(102.000000, 93.000000)"/>
    <path d="M124.746479,18.771831 L126.183099,17.3352113 L126.087324,17.1915493 L124.794366,18.484507 L124.794366,17.3830986 L125.560563,16.6169014 L125.464789,16.5211268 L124.842254,17.143662 L124.842254,16.0422535 L124.938028,15.9464789 L124.842254,15.8507042 L124.746479,15.9464789 L124.171831,15.371831 L124.267606,15.2760563 L124.171831,15.1802817 L124.076056,15.2760563 L122.304225,13.5042254 L115.312676,13.5042254 L116.31831,12.4985915 L116.31831,12.2591549 L115.121127,13.456338 L114.450704,12.9295775 L116.222535,11.1577465 L116.222535,10.9183099 L114.402817,12.7380282 L114.402817,11.6366197 L116.222535,9.81690141 L116.222535,9.57746479 L114.402817,11.3971831 L114.402817,10.2957746 L116.222535,8.47605634 L116.222535,8.23661972 L114.402817,10.056338 L114.402817,8.95492958 L117.515493,5.84225352 L118.616901,5.84225352 L116.940845,7.51830986 L117.180282,7.51830986 L118.856338,5.84225352 L118.952113,5.84225352 L119.478873,6.32112676 L118.329577,7.47042254 L118.569014,7.47042254 L119.574648,6.46478873 L119.574648,8.42816901 L118.952113,10.3915493 L122.112676,10.3915493 L120.867606,11.6366197 L120.771831,11.971831 L122.352113,10.3915493 L123.453521,10.3915493 L121.777465,12.0676056 L122.016901,12.0676056 L123.692958,10.3915493 L124.794366,10.3915493 L123.11831,12.0676056 L123.357746,12.0676056 L125.033803,10.3915493 L125.416901,10.3915493 L125.321127,10.1042254 L126.51831,8.90704225 L126.51831,8.61971831 L125.225352,9.91267606 L124.985915,9.09859155 L126.566197,7.51830986 L126.566197,7.27887324 L124.938028,8.90704225 L124.746479,8.38028169 L124.746479,7.9971831 L126.566197,6.17746479 L126.566197,5.93802817 L124.746479,7.75774648 L124.746479,6.65633803 L126.566197,4.83661972 L126.566197,4.78873239 L126.470423,4.69295775 L124.746479,6.41690141 L124.746479,5.31549296 L125.895775,4.16619718 L125.752113,4.07042254 L124.698592,5.12394366 L124.698592,4.02253521 L125.177465,3.54366197 L125.033803,3.44788732 L124.650704,3.83098592 L124.650704,3.2084507 L124.507042,2.87323944 L124.55493,2.82535211 L124.411268,2.72957746 L124.36338,2.77746479 L122.160563,0.622535211 L111.864789,0.622535211 L109.183099,3.16056338 L109.183099,16.1380282 L111.864789,18.7239437 L112.487324,18.7239437 L112.247887,18.9633803 L112.391549,19.0591549 L112.774648,18.6760563 L113.876056,18.6760563 L112.966197,19.5859155 L113.109859,19.6816901 L114.16338,18.628169 L115.264789,18.628169 L113.684507,20.2084507 L113.780282,20.3042254 L113.876056,20.3042254 L115.552113,18.628169 L116.653521,18.628169 L114.977465,20.3042254 L115.216901,20.3042254 L116.892958,18.628169 L117.994366,18.628169 L116.31831,20.3042254 L116.557746,20.3042254 L118.233803,18.628169 L119.095775,18.628169 L119.239437,18.771831 L117.707042,20.3042254 L117.946479,20.3042254 L119.383099,18.8676056 L119.766197,19.2507042 L119.766197,19.6338028 L119.095775,20.3042254 L119.335211,20.3042254 L119.766197,19.8732394 L119.766197,25.7633803 L119.143662,26.3380282 L115.983099,26.3380282 L116.414085,25.9070423 L116.414085,25.6676056 L115.743662,26.3380282 L115.216901,26.3380282 L114.929577,26.0507042 L116.84507,24.1352113 L116.940845,23.8 L114.785915,25.9549296 L114.594366,25.7633803 L114.594366,25.0450704 L116.174648,23.4647887 L115.935211,23.4647887 L114.594366,24.8056338 L114.594366,23.7521127 L114.594366,23.7042254 L114.833803,23.4647887 L114.690141,23.4647887 L115.264789,21.7887324 L108.847887,21.7887324 L109.422535,23.7521127 L109.422535,28.971831 L112.104225,31.5577465 L112.152113,31.5577465 L112.152113,31.5577465 L112.152113,31.5577465 L113.253521,31.5577465 L112.535211,32.084507 L112.678873,32.1802817 L113.349296,31.5098592 L114.450704,31.5098592 L113.253521,32.7070423 L113.397183,32.8028169 L114.738028,31.4619718 L115.839437,31.4619718 L114.16338,33.1380282 L114.402817,33.1380282 L116.078873,31.4619718 L117.180282,31.4619718 L115.504225,33.1380282 L115.743662,33.1380282 L117.419718,31.4619718 L118.521127,31.4619718 L116.84507,33.1380282 L117.084507,33.1380282 L118.760563,31.4619718 L119.861972,31.4619718 L118.185915,33.1380282 L118.425352,33.1380282 L120.101408,31.4619718 L121.202817,31.4619718 L119.526761,33.1380282 L119.766197,33.1380282 L121.442254,31.4619718 L122.256338,31.4619718 L124.842254,28.8760563 L124.842254,28.0619718 L126.661972,26.2422535 L126.661972,26.0028169 L124.842254,27.8225352 L124.842254,26.8169014 L126.661972,24.9971831 L126.661972,24.7577465 L124.842254,26.5774648 L124.842254,25.4760563 L126.661972,23.656338 L126.661972,23.4169014 L124.842254,25.2366197 L124.842254,24.1352113 L126.661972,22.315493 L126.661972,22.0760563 L124.842254,23.8957746 L124.842254,22.7943662 L126.661972,20.9746479 L126.661972,20.7352113 L124.842254,22.5549296 L124.842254,21.4535211 L126.661972,19.6338028 L126.661972,19.3943662 L124.842254,21.2140845 L124.842254,20.1126761 L126.661972,18.2929577 L126.661972,18.0535211 L124.842254,19.8732394 L124.842254,18.771831 L124.746479,18.771831 Z M114.402817,8.66760563 L114.402817,7.56619718 L116.174648,5.7943662 L117.276056,5.7943662 L114.402817,8.66760563 Z M115.025352,5.7943662 L115.983099,5.7943662 L114.450704,7.32676056 L114.450704,6.36901408 L115.025352,5.7943662 Z" transform="translate(-102.000000, -93.000000) translate(102.000000, 93.000000)"/>
    <path d="M141.698592,31.5577465 L144.284507,28.971831 L144.284507,28.3014085 L146.104225,26.4816901 L146.104225,26.2422535 L144.284507,28.0619718 L144.284507,26.9605634 L146.104225,25.1408451 L146.104225,24.9014085 L144.284507,26.7211268 L144.284507,25.6197183 L146.104225,23.8 L146.104225,23.5605634 L144.284507,25.3802817 L144.284507,24.2788732 L146.104225,22.4591549 L146.104225,22.2197183 L144.284507,24.0394366 L144.284507,22.9380282 L146.104225,21.1183099 L146.104225,20.8788732 L144.284507,22.6985915 L144.284507,21.5971831 L146.104225,19.7774648 L146.104225,19.5380282 L144.284507,21.3577465 L144.284507,20.256338 L146.104225,18.4366197 L146.104225,18.1971831 L144.284507,20.0169014 L144.284507,18.915493 L146.104225,17.0957746 L146.104225,16.856338 L144.284507,18.6760563 L144.284507,17.5746479 L146.104225,15.7549296 L146.104225,15.515493 L144.284507,17.3352113 L144.284507,16.2338028 L146.104225,14.4140845 L146.104225,14.1746479 L144.284507,15.9943662 L144.284507,14.8450704 L146.104225,13.0253521 L146.104225,12.7859155 L144.284507,14.6056338 L144.284507,13.5042254 L146.104225,11.684507 L146.104225,11.4450704 L144.284507,13.2647887 L144.284507,12.1633803 L146.104225,10.343662 L146.104225,10.1042254 L144.284507,11.9239437 L144.284507,10.8225352 L146.104225,9.0028169 L146.104225,8.76338028 L144.284507,10.5830986 L144.284507,9.48169014 L146.104225,7.66197183 L146.104225,7.42253521 L144.284507,9.24225352 L144.284507,8.14084507 L146.104225,6.32112676 L146.104225,6.08169014 L144.284507,7.90140845 L144.284507,6.8 L146.104225,4.98028169 L146.104225,4.78873239 L146.104225,4.78873239 L144.332394,6.56056338 L144.332394,5.45915493 L145.577465,4.21408451 L145.433803,4.11830986 L144.332394,5.21971831 L144.332394,4.11830986 L144.907042,3.54366197 L144.76338,3.44788732 L144.332394,3.87887324 L144.332394,3.16056338 L144.140845,2.96901408 L144.140845,2.87323944 L143.997183,2.77746479 L143.949296,2.82535211 L143.374648,2.29859155 L143.374648,2.29859155 L143.326761,2.29859155 L141.650704,0.622535211 L131.35493,0.622535211 L128.769014,3.16056338 L128.769014,29.0197183 L131.35493,31.6056338 L131.498592,31.6056338 L131.546479,31.6535211 L131.594366,31.6056338 L132.695775,31.6056338 L132.121127,32.1802817 L132.264789,32.2760563 L132.983099,31.5577465 L134.084507,31.5577465 L132.839437,32.8028169 L132.983099,32.8985915 L134.371831,31.5098592 L135.473239,31.5098592 L133.797183,33.1859155 L134.03662,33.1859155 L135.712676,31.5098592 L136.814085,31.5098592 L135.138028,33.1859155 L135.377465,33.1859155 L137.053521,31.5098592 L138.15493,31.5098592 L136.478873,33.1859155 L136.71831,33.1859155 L138.394366,31.5098592 L139.495775,31.5098592 L137.819718,33.1859155 L138.059155,33.1859155 L139.735211,31.5098592 L140.83662,31.5098592 L139.160563,33.1859155 L139.4,33.1859155 L141.076056,31.5098592 L141.698592,31.5098592 L141.698592,31.5577465 Z M135.185915,26.3859155 L134.56338,26.3859155 L134.323944,26.1943662 L135.760563,24.7577465 L135.760563,24.5183099 L134.228169,26.0507042 L133.988732,25.8112676 L133.988732,25.1887324 L135.808451,23.3690141 L135.808451,23.1295775 L133.988732,24.9492958 L133.988732,23.8478873 L135.808451,22.028169 L135.808451,21.7887324 L133.988732,23.6084507 L133.988732,22.5070423 L135.808451,20.6873239 L135.808451,20.4478873 L133.988732,22.2676056 L133.988732,21.1661972 L135.808451,19.3464789 L135.808451,19.1070423 L133.988732,20.9267606 L133.988732,19.8253521 L135.808451,18.0056338 L135.808451,17.7661972 L133.988732,19.5859155 L133.988732,18.484507 L135.808451,16.6647887 L135.808451,16.4253521 L133.988732,18.2450704 L133.988732,17.143662 L135.808451,15.3239437 L135.808451,15.084507 L133.988732,16.9042254 L133.988732,15.8028169 L135.808451,13.9830986 L135.808451,13.743662 L133.988732,15.5633803 L133.988732,14.4619718 L135.808451,12.6422535 L135.808451,12.4028169 L133.988732,14.2225352 L133.988732,13.1211268 L135.808451,11.3014085 L135.808451,11.0619718 L133.988732,12.8816901 L133.988732,11.7802817 L135.808451,9.96056338 L135.808451,9.72112676 L133.988732,11.5408451 L133.988732,10.4394366 L135.808451,8.61971831 L135.808451,8.38028169 L133.988732,10.2 L133.988732,9.09859155 L137.24507,5.84225352 L138.346479,5.84225352 L136.670423,7.51830986 L136.909859,7.51830986 L138.538028,5.89014085 L139.112676,6.41690141 L139.112676,6.41690141 L138.011268,7.51830986 L138.250704,7.51830986 L139.112676,6.65633803 L139.112676,25.8591549 L138.490141,26.4338028 L135.473239,26.4338028 L135.760563,26.1464789 L135.760563,25.8591549 L135.185915,26.3859155 Z M134.56338,5.7943662 L135.616901,5.7943662 L133.940845,7.47042254 L133.940845,6.36901408 L134.56338,5.7943662 Z M135.856338,5.7943662 L136.957746,5.7943662 L133.940845,8.81126761 L133.940845,7.70985915 L135.856338,5.7943662 Z" transform="translate(-102.000000, -93.000000) translate(102.000000, 93.000000)"/>
    <path d="M166.552113,31.5577465 L166.312676,31.0788732 L167.126761,30.2647887 L167.078873,30.0732394 L166.216901,30.9352113 L165.833803,30.2169014 L166.839437,29.2112676 L166.791549,29.0197183 L165.738028,30.0732394 L165.450704,29.5464789 L165.402817,29.3070423 L166.552113,28.1577465 L166.504225,27.9661972 L165.35493,29.115493 L165.16338,28.2056338 L166.312676,27.056338 L166.264789,26.8647887 L165.115493,28.0140845 L164.923944,27.1042254 L166.073239,25.9549296 L166.025352,25.7633803 L164.876056,26.9126761 L164.684507,26.0028169 L165.833803,24.8535211 L165.785915,24.6619718 L164.63662,25.8112676 L164.44507,24.9014085 L165.594366,23.7521127 L165.546479,23.5605634 L164.397183,24.7098592 L164.205634,23.8 L165.35493,22.6507042 L165.307042,22.4591549 L164.157746,23.6084507 L163.966197,22.6985915 L165.115493,21.5492958 L165.067606,21.3577465 L163.91831,22.5070423 L163.726761,21.5971831 L164.876056,20.4478873 L164.828169,20.256338 L163.678873,21.4056338 L163.487324,20.4957746 L164.63662,19.3464789 L164.588732,19.1549296 L163.439437,20.3042254 L163.247887,19.3943662 L164.397183,18.2450704 L164.349296,18.0535211 L163.2,19.2028169 L163.008451,18.2929577 L164.157746,17.143662 L164.109859,16.9521127 L162.960563,18.1014085 L162.769014,17.1915493 L163.91831,16.0422535 L163.870423,15.8507042 L162.721127,17 L162.529577,16.0901408 L163.678873,14.9408451 L163.630986,14.7492958 L162.48169,15.8985915 L162.290141,14.9887324 L163.439437,13.8394366 L163.391549,13.6478873 L162.242254,14.7971831 L162.050704,13.8873239 L163.2,12.7380282 L163.152113,12.5464789 L162.002817,13.6957746 L161.811268,12.7859155 L162.960563,11.6366197 L162.912676,11.4450704 L161.76338,12.5943662 L161.571831,11.684507 L162.721127,10.5352113 L162.673239,10.343662 L161.523944,11.4929577 L161.332394,10.5830986 L162.48169,9.43380282 L162.433803,9.24225352 L161.284507,10.3915493 L161.092958,9.48169014 L162.242254,8.33239437 L162.194366,8.14084507 L161.04507,9.29014085 L160.853521,8.38028169 L162.002817,7.23098592 L161.95493,7.03943662 L160.805634,8.18873239 L160.614085,7.27887324 L161.76338,6.12957746 L161.715493,5.93802817 L160.566197,7.08732394 L160.374648,6.17746479 L161.523944,5.02816901 L161.476056,4.83661972 L160.326761,5.98591549 L160.135211,5.07605634 L161.284507,3.92676056 L161.284507,3.83098592 L161.332394,3.63943662 L160.087324,4.88450704 L159.895775,3.97464789 L161.811268,2.05915493 L161.571831,2.05915493 L159.847887,3.78309859 L159.656338,2.87323944 L160.470423,2.05915493 L159.943662,2.05915493 L159.321127,2.68169014 L159.177465,2.15492958 L159.752113,0.383098592 L152.712676,0.383098592 L153.287324,2.15492958 L146.91831,29.2591549 L145.912676,31.3183099 L149.504225,31.3183099 L147.828169,32.9943662 L148.067606,32.9943662 L149.743662,31.3183099 L150.84507,31.3183099 L149.169014,32.9943662 L149.408451,32.9943662 L151.084507,31.3183099 L152.185915,31.3183099 L150.509859,32.9943662 L150.749296,32.9943662 L154.292958,29.4507042 L154.388732,29.115493 L152.329577,31.1746479 L152.042254,30.3605634 L154.723944,27.6788732 L154.819718,27.343662 L151.994366,30.1690141 L151.946479,30.0732394 L152.28169,28.7802817 L156.304225,24.7577465 L157.405634,24.7577465 L155.729577,26.4338028 L155.969014,26.4338028 L157.64507,24.7577465 L158.746479,24.7577465 L157.070423,26.4338028 L157.309859,26.4338028 L158.890141,24.8535211 L159.416901,25.3802817 L159.416901,25.428169 L158.411268,26.4338028 L158.650704,26.4338028 L159.464789,25.8591549 L160.566197,30.3126761 L160.135211,31.5577465 L163.008451,31.5577465 L162.338028,32.228169 L162.194366,32.6112676 L163.247887,31.5577465 L164.349296,31.5577465 L162.673239,33.2338028 L162.912676,33.2338028 L164.588732,31.5577465 L165.690141,31.5577465 L164.014085,33.2338028 L164.253521,33.2338028 L165.929577,31.5577465 L166.552113,31.5577465 L166.552113,31.5577465 Z M155.873239,19.7774648 L154.771831,19.7774648 L156.687324,17.8619718 L156.735211,17.5746479 L154.628169,19.6816901 L154.24507,19.3464789 L154.340845,18.8676056 L157.022535,16.1859155 L157.070423,15.8985915 L154.388732,18.5802817 L154.676056,17.1915493 L157.261972,14.6056338 L158.219718,19.3464789 L157.740845,19.7774648 L156.112676,19.7774648 L156.352113,19.5380282 L156.4,19.2507042 L155.873239,19.7774648 Z M157.022535,13.2647887 L155.107042,15.1802817 L155.394366,13.7915493 L156.878873,12.3070423 L157.022535,13.2647887 Z M157.070423,13.456338 L157.261972,14.3661972 L154.771831,16.856338 L155.059155,15.4676056 L157.070423,13.456338 Z M153.670423,24.9971831 L154.676056,24.9971831 L152.712676,26.9605634 L153.047887,25.6197183 L153.670423,24.9971831 Z M156.783099,12.115493 L155.442254,13.456338 L155.729577,12.0676056 L156.639437,11.1577465 L156.783099,12.115493 Z M156.591549,11.0140845 L155.777465,11.828169 L156.064789,10.4394366 L156.4,10.1042254 L156.591549,11.0140845 Z M156.112676,10.1042254 L156.256338,9.43380282 L156.352113,9.91267606 L156.112676,10.1042254 Z M152.329577,28.684507 L152.664789,27.2478873 L154.915493,24.9971831 L156.016901,24.9971831 L152.329577,28.684507 Z" transform="translate(-102.000000, -93.000000) translate(102.000000, 93.000000)"/>
    <path d="M184.605634,6.51267606 L186.377465,4.74084507 L186.233803,4.64507042 L184.605634,6.27323944 L184.605634,5.17183099 L185.707042,4.07042254 L185.56338,3.97464789 L184.605634,4.93239437 L184.605634,3.83098592 L184.988732,3.44788732 L184.84507,3.35211268 L184.557746,3.63943662 L184.557746,3.16056338 L184.222535,2.87323944 L184.270423,2.82535211 L184.126761,2.72957746 L184.078873,2.77746479 L181.923944,0.670422535 L168.419718,0.670422535 L169.090141,2.68169014 L169.090141,29.6901408 L168.419718,31.6535211 L171.388732,31.6535211 L170.478873,32.5633803 L170.335211,32.9464789 L171.628169,31.6535211 L172.729577,31.6535211 L171.053521,33.3295775 L171.292958,33.3295775 L172.969014,31.6535211 L174.070423,31.6535211 L172.394366,33.3295775 L172.633803,33.3295775 L174.309859,31.6535211 L174.788732,31.6535211 L174.64507,31.2704225 L175.938028,29.9774648 L175.938028,29.7380282 L174.597183,31.0788732 L174.309859,30.2647887 L175.938028,28.6366197 L175.938028,28.3971831 L174.261972,30.0732394 L174.11831,29.6901408 L174.11831,29.115493 L175.938028,27.2957746 L175.938028,27.056338 L174.11831,28.8760563 L174.11831,27.7746479 L175.938028,25.9549296 L175.938028,25.715493 L174.11831,27.5352113 L174.11831,26.3380282 L175.938028,24.5183099 L175.938028,24.2788732 L174.11831,26.0985915 L174.11831,24.9971831 L175.938028,23.1774648 L175.938028,22.9380282 L174.11831,24.7577465 L174.11831,23.656338 L177.901408,19.8732394 L179.002817,19.8732394 L177.326761,21.5492958 L177.566197,21.5492958 L179.242254,19.8732394 L180.343662,19.8732394 L178.667606,21.5492958 L178.907042,21.5492958 L180.583099,19.8732394 L181.684507,19.8732394 L180.008451,21.5492958 L180.247887,21.5492958 L186.329577,15.4676056 L186.329577,15.228169 L184.509859,17.0478873 L184.509859,15.9464789 L186.329577,14.1267606 L186.329577,13.8873239 L184.509859,15.7070423 L184.509859,14.6056338 L186.329577,12.7859155 L186.329577,12.5464789 L184.509859,14.3661972 L184.509859,13.2647887 L186.329577,11.4450704 L186.329577,11.2056338 L184.509859,13.0253521 L184.509859,11.9239437 L186.329577,10.1042254 L186.329577,9.86478873 L184.509859,11.684507 L184.509859,10.5352113 L186.329577,8.71549296 L186.329577,8.47605634 L184.509859,10.2957746 L184.509859,9.1943662 L186.329577,7.37464789 L186.329577,7.18309859 L184.509859,9.0028169 L184.509859,7.90140845 L186.329577,6.08169014 L186.329577,5.84225352 L184.509859,7.66197183 L184.509859,6.51267606 L184.605634,6.51267606 Z M174.214085,20.4478873 L174.83662,19.8253521 L175.076056,19.8253521 L174.214085,20.6873239 L174.214085,20.4478873 Z M174.214085,7.47042254 L175.890141,5.7943662 L176.991549,5.7943662 L174.214085,8.57183099 L174.214085,7.47042254 Z M174.214085,7.23098592 L174.214085,6.36901408 L174.83662,5.7943662 L175.698592,5.7943662 L174.214085,7.23098592 Z M174.214085,20.9267606 L175.315493,19.8253521 L176.416901,19.8253521 L174.214085,22.028169 L174.214085,20.9267606 Z M179.385915,7.47042254 L179.385915,14.0788732 L178.76338,14.6535211 L175.076056,14.6535211 L175.985915,13.743662 L175.985915,13.5042254 L174.83662,14.6535211 L174.788732,14.6535211 L174.214085,14.1267606 L175.985915,12.3549296 L175.985915,12.115493 L174.166197,13.9352113 L174.166197,12.8338028 L175.985915,11.0140845 L175.985915,10.7746479 L174.166197,12.5943662 L174.166197,11.4929577 L175.985915,9.67323944 L175.985915,9.43380282 L174.166197,11.2535211 L174.166197,10.1521127 L175.985915,8.33239437 L175.985915,8.14084507 L174.166197,9.96056338 L174.166197,8.85915493 L177.183099,5.84225352 L178.284507,5.84225352 L176.608451,7.51830986 L176.847887,7.51830986 L178.523944,5.84225352 L178.715493,5.84225352 L179.194366,6.27323944 L177.949296,7.51830986 L178.188732,7.51830986 L179.290141,6.41690141 L179.290141,6.41690141 L179.290141,7.47042254 L179.385915,7.47042254 L179.385915,7.47042254 Z M174.214085,23.4169014 L174.214085,22.315493 L176.656338,19.8732394 L177.757746,19.8732394 L174.214085,23.4169014 Z" transform="translate(-102.000000, -93.000000) translate(102.000000, 93.000000)"/>
    <path d="M213.050704,25.428169 L214.966197,23.4647887 L214.726761,23.4647887 L213.050704,25.1887324 L213.050704,24.0873239 L213.625352,23.4647887 L213.385915,23.4647887 L213.050704,23.8478873 L213.050704,23.7042254 L213.721127,21.7408451 L207.256338,21.7408451 L207.926761,23.7042254 L207.926761,25.715493 L207.352113,26.3380282 L204.143662,26.3380282 L204.574648,25.9070423 L204.574648,25.6676056 L203.904225,26.3380282 L203.329577,26.3380282 L203.090141,26.0985915 L204.574648,24.6140845 L204.574648,24.3746479 L202.946479,26.0028169 L202.707042,25.7633803 L202.707042,25.1408451 L204.574648,23.2732394 L204.574648,22.9859155 L202.707042,24.8535211 L202.707042,23.7521127 L204.574648,21.884507 L204.574648,21.6450704 L202.707042,23.5126761 L202.707042,22.4112676 L204.574648,20.543662 L204.574648,20.3042254 L202.707042,22.171831 L202.707042,21.0704225 L204.574648,19.2028169 L204.574648,18.9633803 L202.707042,20.8309859 L202.707042,19.7295775 L204.574648,17.8619718 L204.574648,17.6225352 L202.707042,19.4901408 L202.707042,18.3887324 L204.574648,16.5211268 L204.574648,16.2816901 L202.707042,18.1492958 L202.707042,17.0478873 L204.574648,15.1802817 L204.574648,14.9408451 L202.707042,16.8084507 L202.707042,15.7070423 L204.574648,13.8394366 L204.574648,13.6 L202.707042,15.4676056 L202.707042,14.3661972 L204.574648,12.4985915 L204.574648,12.2591549 L202.707042,14.1267606 L202.707042,13.0253521 L204.574648,11.1577465 L204.574648,10.9183099 L202.707042,12.7859155 L202.707042,11.684507 L204.574648,9.81690141 L204.574648,9.57746479 L202.707042,11.4450704 L202.707042,10.343662 L204.574648,8.47605634 L204.574648,8.23661972 L202.707042,10.1042254 L202.707042,9.0028169 L205.96338,5.74647887 L207.064789,5.74647887 L205.340845,7.51830986 L205.580282,7.51830986 L207.304225,5.74647887 L207.352113,5.74647887 L207.878873,6.27323944 L206.68169,7.47042254 L206.921127,7.47042254 L207.974648,6.41690141 L207.974648,8.33239437 L207.304225,10.2957746 L210.608451,10.2957746 L209.36338,11.5408451 L209.219718,11.9239437 L210.847887,10.2957746 L211.949296,10.2957746 L210.225352,12.0676056 L210.464789,12.0676056 L212.188732,10.2957746 L213.290141,10.2957746 L211.566197,12.0676056 L211.805634,12.0676056 L213.529577,10.2957746 L213.816901,10.2957746 L213.769014,10.1042254 L215.014085,8.81126761 L215.014085,8.57183099 L213.673239,9.91267606 L213.385915,9.09859155 L214.966197,7.47042254 L214.966197,7.23098592 L213.290141,8.90704225 L213.098592,8.33239437 L213.098592,7.9971831 L214.966197,6.12957746 L214.966197,5.89014085 L213.098592,7.75774648 L213.098592,6.65633803 L214.91831,4.83661972 L214.774648,4.74084507 L213.098592,6.41690141 L213.098592,5.26760563 L214.2,4.11830986 L214.056338,4.02253521 L213.050704,5.02816901 L213.050704,3.92676056 L213.48169,3.49577465 L213.338028,3.4 L213.002817,3.73521127 L213.002817,3.16056338 L212.715493,2.92112676 L212.76338,2.87323944 L212.619718,2.77746479 L212.571831,2.82535211 L210.369014,0.670422535 L200.169014,0.670422535 L197.583099,3.2084507 L197.583099,29.0676056 L200.169014,31.6535211 L200.216901,31.6535211 L200.216901,31.6535211 L200.216901,31.6535211 L201.31831,31.6535211 L200.743662,32.228169 L200.887324,32.3239437 L201.557746,31.6535211 L202.659155,31.6535211 L201.414085,32.8985915 L201.557746,32.9943662 L202.898592,31.6535211 L204,31.6535211 L202.276056,33.4253521 L202.515493,33.4253521 L204.239437,31.6535211 L205.340845,31.6535211 L203.616901,33.4253521 L203.856338,33.4253521 L205.580282,31.6535211 L206.68169,31.6535211 L204.957746,33.4253521 L205.197183,33.4253521 L206.921127,31.6535211 L208.022535,31.6535211 L206.298592,33.4253521 L206.538028,33.4253521 L208.261972,31.6535211 L209.36338,31.6535211 L207.639437,33.4253521 L207.878873,33.4253521 L209.602817,31.6535211 L210.416901,31.6535211 L213.002817,29.0676056 L213.002817,28.2535211 L214.870423,26.3859155 L214.870423,26.1464789 L213.002817,28.0140845 L213.002817,26.8169014 L215.109859,24.7098592 L215.253521,24.3267606 L213.002817,26.5774648 L213.002817,25.428169 L213.050704,25.428169 Z M202.707042,8.66760563 L202.707042,7.56619718 L204.622535,5.65070423 L205.723944,5.65070423 L202.707042,8.66760563 Z M203.329577,5.65070423 L204.383099,5.65070423 L202.707042,7.32676056 L202.707042,6.27323944 L203.329577,5.65070423 Z" transform="translate(-102.000000, -93.000000) translate(102.000000, 93.000000)"/>
    <path d="M232.492958,6.70422535 L234.360563,4.83661972 L234.216901,4.74084507 L232.492958,6.46478873 L232.492958,5.36338028 L233.642254,4.21408451 L233.498592,4.11830986 L232.44507,5.17183099 L232.44507,4.07042254 L232.923944,3.5915493 L232.780282,3.49577465 L232.397183,3.87887324 L232.397183,3.2084507 L232.157746,2.96901408 L232.205634,2.92112676 L232.061972,2.82535211 L232.014085,2.87323944 L229.811268,0.670422535 L219.515493,0.670422535 L216.929577,3.2084507 L216.929577,29.0676056 L219.515493,31.6535211 L219.56338,31.6535211 L219.802817,31.6056338 L219.850704,31.5577465 L220.952113,31.5577465 L220.329577,32.1802817 L220.473239,32.2760563 L221.191549,31.5577465 L222.292958,31.5577465 L221,32.8507042 L221.143662,32.9464789 L222.532394,31.5577465 L223.633803,31.5577465 L221.909859,33.3295775 L222.149296,33.3295775 L223.873239,31.5577465 L224.974648,31.5577465 L223.250704,33.3295775 L223.490141,33.3295775 L225.214085,31.5577465 L226.315493,31.5577465 L224.591549,33.3295775 L224.830986,33.3295775 L226.55493,31.5577465 L227.656338,31.5577465 L225.932394,33.3295775 L226.171831,33.3295775 L227.895775,31.5577465 L228.997183,31.5577465 L227.273239,33.3295775 L227.512676,33.3295775 L229.23662,31.5577465 L229.95493,31.5577465 L232.540845,28.971831 L232.540845,28.2535211 L234.408451,26.3859155 L234.408451,26.1464789 L232.540845,28.0140845 L232.540845,26.9126761 L234.408451,25.0450704 L234.408451,24.8056338 L232.540845,26.6732394 L232.540845,25.571831 L234.408451,23.7042254 L234.408451,23.4647887 L232.540845,25.3323944 L232.540845,24.2309859 L234.408451,22.3633803 L234.408451,22.1239437 L232.540845,23.9915493 L232.540845,22.8901408 L234.408451,21.0225352 L234.408451,20.7830986 L232.540845,22.6507042 L232.540845,21.5492958 L234.408451,19.6816901 L234.408451,19.4422535 L232.540845,21.3098592 L232.540845,20.2084507 L234.408451,18.3408451 L234.408451,18.1014085 L232.540845,19.9690141 L232.540845,18.8676056 L234.408451,17 L234.408451,16.7605634 L232.540845,18.628169 L232.540845,17.5267606 L234.408451,15.6591549 L234.408451,15.4197183 L232.540845,17.2873239 L232.540845,16.1859155 L234.408451,14.3183099 L234.408451,14.0788732 L232.540845,15.9464789 L232.540845,14.8450704 L234.408451,12.9774648 L234.408451,12.7380282 L232.540845,14.6056338 L232.540845,13.4084507 L234.408451,11.5408451 L234.408451,11.3014085 L232.540845,13.1690141 L232.540845,12.0676056 L234.408451,10.2 L234.408451,9.96056338 L232.540845,11.828169 L232.540845,10.7267606 L234.408451,8.85915493 L234.408451,8.61971831 L232.540845,10.4873239 L232.540845,9.38591549 L234.408451,7.51830986 L234.408451,7.27887324 L232.540845,9.14647887 L232.540845,8.04507042 L234.408451,6.17746479 L234.408451,5.93802817 L232.540845,7.8056338 L232.540845,6.70422535 L232.492958,6.70422535 Z M223.394366,26.3380282 L222.771831,26.3380282 L222.532394,26.0985915 L224.016901,24.6140845 L224.016901,24.4225352 L222.43662,26.0507042 L222.197183,25.8112676 L222.197183,25.1887324 L224.064789,23.3211268 L224.064789,23.0816901 L222.197183,24.9492958 L222.197183,23.8478873 L224.064789,21.9802817 L224.064789,21.7408451 L222.197183,23.6084507 L222.197183,22.5070423 L224.064789,20.6394366 L224.064789,20.4 L222.197183,22.2676056 L222.197183,21.1661972 L224.064789,19.2985915 L224.064789,19.0591549 L222.197183,20.9267606 L222.197183,19.8253521 L224.064789,17.9577465 L224.064789,17.7183099 L222.197183,19.5859155 L222.197183,18.484507 L224.064789,16.6169014 L224.064789,16.3774648 L222.197183,18.2450704 L222.197183,17.143662 L224.064789,15.2760563 L224.064789,15.0366197 L222.197183,16.9042254 L222.197183,15.8028169 L224.064789,13.9352113 L224.064789,13.6957746 L222.197183,15.5633803 L222.197183,14.4619718 L224.064789,12.5943662 L224.064789,12.3549296 L222.197183,14.2225352 L222.197183,13.1211268 L224.064789,11.2535211 L224.064789,11.0140845 L222.197183,12.8816901 L222.197183,11.7802817 L224.064789,9.91267606 L224.064789,9.67323944 L222.197183,11.5408451 L222.197183,10.4394366 L224.064789,8.57183099 L224.064789,8.33239437 L222.197183,10.2 L222.197183,9.09859155 L225.405634,5.89014085 L226.507042,5.89014085 L224.783099,7.66197183 L225.022535,7.66197183 L226.746479,5.93802817 L227.321127,6.46478873 L226.123944,7.66197183 L226.36338,7.66197183 L227.369014,6.65633803 L227.369014,25.9070423 L226.746479,26.4816901 L223.633803,26.4816901 L224.016901,26.0985915 L224.016901,25.8591549 L223.394366,26.3380282 Z M222.771831,5.7943662 L223.777465,5.7943662 L222.149296,7.42253521 L222.149296,6.36901408 L222.771831,5.7943662 Z M224.016901,5.7943662 L225.11831,5.7943662 L222.149296,8.76338028 L222.149296,7.66197183 L224.016901,5.7943662 Z" transform="translate(-102.000000, -93.000000) translate(102.000000, 93.000000)"/>
    <path d="M259.788732,31.5098592 L259.597183,30.9830986 L260.985915,29.5943662 L260.985915,29.3549296 L259.549296,30.7915493 L259.261972,29.9774648 L260.985915,28.2535211 L260.985915,28.0140845 L259.214085,29.7859155 L259.11831,29.5464789 L259.11831,28.7802817 L260.985915,26.9126761 L260.985915,26.6732394 L259.11831,28.5408451 L259.11831,27.4394366 L260.985915,25.571831 L260.985915,25.3802817 L259.11831,27.2478873 L259.11831,26.1464789 L260.985915,24.2788732 L260.985915,24.0394366 L259.11831,25.9070423 L259.11831,24.8056338 L260.985915,22.9380282 L260.985915,22.6985915 L259.11831,24.5661972 L259.11831,23.4647887 L260.985915,21.5492958 L260.985915,21.3098592 L259.11831,23.1774648 L259.11831,22.0760563 L260.985915,20.2084507 L260.985915,19.9690141 L259.11831,21.8366197 L259.11831,20.7352113 L260.985915,18.8676056 L260.985915,18.628169 L259.11831,20.4957746 L259.11831,19.3943662 L260.985915,17.5267606 L260.985915,17.2873239 L259.11831,19.1549296 L259.11831,18.0535211 L260.985915,16.1859155 L260.985915,15.9464789 L259.11831,17.8140845 L259.11831,16.7126761 L260.985915,14.8450704 L260.985915,14.6056338 L259.11831,16.4732394 L259.11831,15.371831 L260.985915,13.5042254 L260.985915,13.2647887 L259.11831,15.1323944 L259.11831,14.0309859 L260.985915,12.1633803 L260.985915,11.9239437 L259.11831,13.7915493 L259.11831,12.6901408 L260.985915,10.8225352 L260.985915,10.5830986 L259.11831,12.4507042 L259.11831,11.3492958 L260.985915,9.48169014 L260.985915,9.24225352 L259.11831,11.1098592 L259.11831,10.0084507 L260.985915,8.14084507 L260.985915,7.90140845 L259.11831,9.76901408 L259.11831,8.61971831 L260.985915,6.75211268 L260.985915,6.51267606 L259.11831,8.38028169 L259.11831,7.27887324 L260.985915,5.41126761 L260.985915,5.17183099 L259.11831,7.03943662 L259.11831,5.93802817 L261.08169,3.97464789 L261.177465,3.63943662 L259.070423,5.74647887 L259.070423,4.64507042 L261.321127,2.3943662 L261.08169,2.3943662 L259.070423,4.4056338 L259.070423,3.30422535 L259.980282,2.3943662 L259.740845,2.3943662 L259.070423,3.06478873 L259.070423,2.63380282 L259.740845,0.622535211 L253.994366,0.622535211 L248.104225,14.0788732 L247.769014,14.4140845 L247.433803,13.6478873 L248.2,12.8816901 L248.104225,12.7380282 L247.338028,13.5042254 L247.002817,12.7380282 L247.769014,11.971831 L247.673239,11.828169 L246.907042,12.5943662 L246.571831,11.828169 L247.338028,11.0619718 L247.242254,10.9183099 L246.476056,11.684507 L246.140845,10.9183099 L246.907042,10.1521127 L246.811268,10.0084507 L246.04507,10.7746479 L245.709859,10.0084507 L246.476056,9.24225352 L246.380282,9.09859155 L245.614085,9.86478873 L245.278873,9.09859155 L246.04507,8.33239437 L245.949296,8.18873239 L245.183099,8.95492958 L244.847887,8.18873239 L245.614085,7.42253521 L245.51831,7.27887324 L244.752113,8.04507042 L244.416901,7.27887324 L245.183099,6.51267606 L245.087324,6.36901408 L244.321127,7.13521127 L243.985915,6.36901408 L244.752113,5.6028169 L244.656338,5.45915493 L243.890141,6.22535211 L243.55493,5.45915493 L244.321127,4.69295775 L244.225352,4.54929577 L243.459155,5.31549296 L243.123944,4.54929577 L243.890141,3.78309859 L243.794366,3.63943662 L243.028169,4.4056338 L242.692958,3.63943662 L243.459155,2.87323944 L243.36338,2.72957746 L242.597183,3.49577465 L242.261972,2.72957746 L242.309859,2.68169014 L242.214085,2.68169014 L241.447887,0.909859155 L235.701408,0.909859155 L236.371831,2.92112676 L236.371831,29.9295775 L235.701408,31.8929577 L238.478873,31.8929577 L238,32.371831 L237.856338,32.7549296 L238.71831,31.8929577 L239.819718,31.8929577 L238.095775,33.6647887 L238.335211,33.6647887 L240.059155,31.8929577 L241.160563,31.8929577 L239.43662,33.6647887 L239.676056,33.6647887 L241.4,31.8929577 L242.11831,31.8929577 L241.926761,31.3661972 L243.315493,29.9774648 L243.315493,29.7380282 L241.878873,31.1746479 L241.591549,30.3605634 L243.315493,28.6366197 L243.315493,28.3971831 L241.543662,30.1690141 L241.447887,29.9295775 L241.447887,29.115493 L243.315493,27.2478873 L243.315493,27.0084507 L241.447887,28.8760563 L241.447887,27.7746479 L243.315493,25.9070423 L243.315493,25.6676056 L241.447887,27.5352113 L241.447887,26.4338028 L243.315493,24.5661972 L243.315493,24.3267606 L241.447887,26.1943662 L241.447887,25.0929577 L243.315493,23.2253521 L243.315493,22.9859155 L241.447887,24.8535211 L241.447887,23.7521127 L243.315493,21.884507 L243.315493,21.6450704 L241.447887,23.5126761 L241.447887,22.028169 L243.315493,20.1605634 L243.315493,19.9211268 L241.447887,21.7887324 L241.447887,20.6873239 L243.315493,18.8197183 L243.315493,18.5802817 L241.447887,20.4478873 L241.447887,19.3464789 L243.315493,17.4788732 L243.315493,17.2394366 L241.447887,19.1070423 L241.447887,18.0056338 L243.267606,16.1859155 L245.949296,22.6507042 L247.290141,22.6507042 L247.146479,22.7943662 L247.194366,22.9859155 L247.529577,22.6507042 L248.630986,22.6507042 L247.529577,23.7521127 L247.577465,23.943662 L248.822535,22.6507042 L249.157746,22.6507042 L249.397183,22.0760563 L253.659155,17.7661972 L253.659155,29.5464789 L252.988732,31.5098592 L255.766197,31.5098592 L255.239437,32.0366197 L255.095775,32.4197183 L256.005634,31.5098592 L257.107042,31.5098592 L255.383099,33.2816901 L255.622535,33.2816901 L257.346479,31.5098592 L258.447887,31.5098592 L256.723944,33.2816901 L256.96338,33.2816901 L258.687324,31.5098592 L259.788732,31.5098592 L259.788732,31.5098592 Z M254.042254,14.8450704 L251.839437,17.0478873 L252.605634,15.1323944 L253.994366,13.743662 L253.994366,14.8450704 L254.042254,14.8450704 Z M254.042254,13.5042254 L252.797183,14.7492958 L253.56338,12.8338028 L253.994366,12.4028169 L253.994366,13.5042254 L254.042254,13.5042254 Z M253.75493,12.4028169 L254.042254,11.7802817 L254.042254,12.1633803 L253.75493,12.4028169 Z M247.960563,14.4619718 L247.912676,14.5577465 L247.912676,14.5098592 L247.960563,14.4619718 Z M241.735211,15.3239437 L242.788732,14.2704225 L243.123944,15.0366197 L241.783099,16.4253521 L241.783099,15.3239437 L241.735211,15.3239437 Z M242.692958,14.1267606 L241.735211,15.084507 L241.735211,13.9830986 L242.357746,13.3605634 L242.692958,14.1267606 Z M242.309859,13.1690141 L241.735211,13.743662 L241.735211,12.6422535 L241.974648,12.4028169 L242.309859,13.1690141 Z M241.735211,12.4028169 L241.735211,11.7802817 L241.926761,12.2112676 L241.735211,12.4028169 Z M241.735211,17.7661972 L241.735211,16.6647887 L243.171831,15.228169 L243.507042,15.9943662 L241.735211,17.7661972 Z M251.695775,17.4309859 L254.042254,15.084507 L254.042254,16.1859155 L250.88169,19.3464789 L251.695775,17.4309859 Z M249.923944,21.6450704 L250.690141,19.7295775 L253.994366,16.3774648 L253.994366,17.4788732 L249.923944,21.6450704 Z" transform="translate(-102.000000, -93.000000) translate(102.000000, 93.000000)"/>
    <path d="M276.453521,19.8253521 L279.039437,17.2394366 L279.039437,17.1915493 L280.907042,15.3239437 L280.907042,15.084507 L279.039437,16.9521127 L279.039437,15.8507042 L280.907042,13.9830986 L280.907042,13.743662 L279.039437,15.6112676 L279.039437,14.5098592 L280.907042,12.6422535 L280.907042,12.4028169 L279.039437,14.2704225 L279.039437,13.1690141 L280.907042,11.3014085 L280.907042,11.0619718 L279.039437,12.9295775 L279.039437,11.828169 L280.907042,9.96056338 L280.907042,9.72112676 L279.039437,11.5887324 L279.039437,10.4873239 L280.907042,8.61971831 L280.907042,8.38028169 L279.039437,10.2478873 L279.039437,9.09859155 L280.907042,7.23098592 L280.907042,6.9915493 L279.039437,8.85915493 L279.039437,7.75774648 L280.907042,5.89014085 L280.907042,5.65070423 L279.039437,7.51830986 L279.039437,6.41690141 L280.715493,4.69295775 L280.571831,4.5971831 L278.991549,6.17746479 L278.991549,5.07605634 L279.997183,4.07042254 L279.853521,3.97464789 L278.943662,4.88450704 L278.943662,3.78309859 L279.278873,3.44788732 L279.135211,3.35211268 L278.943662,3.54366197 L278.943662,3.16056338 L278.560563,2.82535211 L278.560563,2.82535211 L278.416901,2.72957746 L278.416901,2.72957746 L276.309859,0.670422535 L262.805634,0.670422535 L263.476056,2.68169014 L263.476056,29.6901408 L262.805634,31.6535211 L265.726761,31.6535211 L264.960563,32.4197183 L264.816901,32.8028169 L265.91831,31.7014085 L267.019718,31.7014085 L265.295775,33.4732394 L265.535211,33.4732394 L267.259155,31.7014085 L268.360563,31.7014085 L266.63662,33.4732394 L266.876056,33.4732394 L268.6,31.7014085 L269.126761,31.7014085 L268.983099,31.3183099 L270.323944,29.9774648 L270.323944,29.7380282 L268.935211,31.1267606 L268.647887,30.3126761 L270.323944,28.6366197 L270.323944,28.3971831 L268.6,30.1211268 L268.456338,29.7380282 L268.456338,29.115493 L270.323944,27.2478873 L270.323944,27.0084507 L268.456338,28.8760563 L268.456338,27.7746479 L270.323944,25.9070423 L270.323944,25.6676056 L268.456338,27.5352113 L268.456338,26.4338028 L270.323944,24.5661972 L270.323944,24.3267606 L268.456338,26.1943662 L268.456338,24.9014085 L270.323944,23.0338028 L270.323944,22.7943662 L268.456338,24.6619718 L268.456338,23.5605634 L272.191549,19.8253521 L273.292958,19.8253521 L271.569014,21.5971831 L271.808451,21.5971831 L273.532394,19.8253521 L274.633803,19.8253521 L272.909859,21.5971831 L273.149296,21.5971831 L274.873239,19.8253521 L275.974648,19.8253521 L274.250704,21.5971831 L274.490141,21.5971831 L276.453521,19.8253521 L276.453521,19.8253521 Z M268.695775,20.4478873 L269.31831,19.8253521 L269.509859,19.8253521 L268.695775,20.6394366 L268.695775,20.4478873 L268.695775,20.4478873 Z M268.695775,8.76338028 L271.664789,5.7943662 L272.766197,5.7943662 L268.695775,9.86478873 L268.695775,8.76338028 Z M268.695775,8.52394366 L268.695775,7.42253521 L270.323944,5.7943662 L271.425352,5.7943662 L268.695775,8.52394366 Z M268.695775,7.18309859 L268.695775,6.36901408 L269.31831,5.7943662 L270.084507,5.7943662 L268.695775,7.18309859 Z M268.695775,20.8788732 L269.749296,19.8253521 L270.850704,19.8253521 L268.695775,21.9802817 L268.695775,20.8788732 Z M273.867606,7.56619718 L273.867606,14.1267606 L273.24507,14.7014085 L269.509859,14.7014085 L270.515493,13.6478873 L270.515493,13.4084507 L269.270423,14.6535211 L268.695775,14.1267606 L270.515493,12.3070423 L270.515493,12.0676056 L268.647887,13.9352113 L268.647887,12.8338028 L270.515493,10.9661972 L270.515493,10.7267606 L268.647887,12.5943662 L268.647887,11.4929577 L270.56338,9.57746479 L270.56338,9.33802817 L268.695775,11.2056338 L268.695775,10.1042254 L270.56338,8.23661972 L270.56338,8.14084507 L271.185915,7.56619718 L271.28169,7.56619718 L273.005634,5.7943662 L273.24507,5.7943662 L273.676056,6.22535211 L272.335211,7.56619718 L272.574648,7.56619718 L273.819718,6.32112676 L273.867606,6.36901408 L273.867606,7.37464789 L273.676056,7.56619718 L273.867606,7.56619718 Z M268.695775,23.3211268 L268.695775,22.2197183 L271.090141,19.8253521 L272.191549,19.8253521 L268.695775,23.3211268 Z" transform="translate(-102.000000, -93.000000) translate(102.000000, 93.000000)"/>
    <path d="M300.301408,31.5098592 L300.061972,30.9830986 L300.923944,30.1211268 L300.876056,29.9295775 L300.014085,30.7915493 L299.630986,30.0732394 L300.63662,29.0197183 L300.588732,28.828169 L299.535211,29.8816901 L299.295775,29.3549296 L299.247887,29.0676056 L300.397183,27.9183099 L300.349296,27.7267606 L299.2,28.8760563 L299.008451,27.9661972 L300.157746,26.8169014 L300.109859,26.6253521 L298.960563,27.7746479 L298.769014,26.8647887 L299.91831,25.715493 L299.870423,25.5239437 L298.721127,26.6732394 L298.529577,25.7633803 L299.678873,24.6140845 L299.630986,24.4225352 L298.48169,25.571831 L298.290141,24.6619718 L299.439437,23.5126761 L299.295775,23.4647887 L298.146479,24.6140845 L297.95493,23.7042254 L299.104225,22.5549296 L299.056338,22.3633803 L297.907042,23.5126761 L297.715493,22.6028169 L298.864789,21.4535211 L298.816901,21.2619718 L297.667606,22.4112676 L297.476056,21.5014085 L298.625352,20.3521127 L298.577465,20.1605634 L297.428169,21.3098592 L297.23662,20.4 L298.385915,19.2507042 L298.338028,19.0591549 L297.188732,20.2084507 L296.997183,19.2985915 L298.146479,18.1492958 L298.098592,17.9577465 L296.949296,19.1070423 L296.757746,18.1971831 L297.907042,17.0478873 L297.859155,16.856338 L296.709859,18.0056338 L296.51831,17.0957746 L297.667606,15.9464789 L297.619718,15.7549296 L296.470423,16.9042254 L296.278873,15.9943662 L297.428169,14.8450704 L297.380282,14.6535211 L296.230986,15.8028169 L296.039437,14.8929577 L297.188732,13.743662 L297.140845,13.5521127 L295.991549,14.7014085 L295.8,13.7915493 L296.949296,12.6422535 L296.901408,12.4507042 L295.752113,13.6 L295.560563,12.6901408 L296.709859,11.5408451 L296.661972,11.3492958 L295.512676,12.4985915 L295.321127,11.5887324 L296.470423,10.4394366 L296.422535,10.2478873 L295.273239,11.3971831 L295.08169,10.4873239 L296.230986,9.33802817 L296.183099,9.14647887 L295.033803,10.2957746 L294.842254,9.38591549 L295.991549,8.23661972 L295.943662,8.04507042 L294.794366,9.1943662 L294.602817,8.28450704 L295.752113,7.13521127 L295.704225,6.94366197 L294.55493,8.09295775 L294.36338,7.18309859 L295.512676,6.03380282 L295.464789,5.84225352 L294.028169,7.18309859 L293.83662,6.27323944 L294.985915,5.12394366 L294.938028,4.93239437 L293.788732,6.08169014 L293.597183,5.17183099 L294.842254,3.92676056 L294.938028,3.5915493 L293.549296,4.98028169 L293.357746,4.07042254 L295.129577,2.29859155 L294.890141,2.29859155 L293.309859,3.87887324 L293.11831,2.96901408 L293.788732,2.25070423 L293.549296,2.25070423 L293.070423,2.72957746 L292.974648,2.25070423 L293.549296,0.478873239 L286.509859,0.478873239 L287.084507,2.25070423 L280.715493,29.3070423 L279.709859,31.3661972 L283.253521,31.3661972 L281.577465,33.0422535 L281.529577,33.0901408 L281.721127,33.0901408 L283.44507,31.3183099 L284.546479,31.3183099 L282.822535,33.0901408 L283.061972,33.0901408 L284.785915,31.3183099 L285.887324,31.3183099 L284.16338,33.0901408 L284.402817,33.0901408 L288.138028,29.3070423 L288.233803,28.971831 L286.078873,31.1267606 L285.791549,30.3126761 L288.616901,27.4873239 L288.712676,27.1521127 L285.791549,30.1211268 L285.743662,30.0732394 L286.078873,28.7323944 L290.053521,24.7098592 L291.15493,24.7098592 L289.430986,26.4816901 L289.670423,26.4816901 L291.394366,24.7098592 L292.495775,24.7098592 L290.771831,26.4816901 L291.011268,26.4816901 L292.687324,24.8056338 L293.214085,25.3323944 L293.214085,25.3802817 L292.112676,26.4816901 L292.352113,26.4816901 L293.261972,25.571831 L293.453521,26.4816901 L293.405634,26.5295775 L293.453521,26.5295775 L294.315493,30.1211268 L293.884507,31.3661972 L296.661972,31.3661972 L296.135211,31.8929577 L296.135211,31.9408451 L295.991549,32.2760563 L296.853521,31.4140845 L297.95493,31.4140845 L296.230986,33.1859155 L296.470423,33.1859155 L298.194366,31.4140845 L299.295775,31.4140845 L297.571831,33.1859155 L297.811268,33.1859155 L299.535211,31.4140845 L300.301408,31.4140845 L300.301408,31.5098592 Z M289.574648,19.7774648 L288.473239,19.7774648 L288.473239,19.7774648 L290.532394,17.7183099 L290.580282,17.4309859 L288.329577,19.6816901 L287.994366,19.3464789 L288.090141,18.8197183 L290.867606,16.0422535 L290.915493,15.7549296 L288.138028,18.5323944 L288.425352,17.143662 L291.011268,14.5577465 L291.969014,19.3464789 L291.490141,19.7774648 L289.814085,19.7774648 L290.197183,19.3943662 L290.24507,19.1070423 L289.574648,19.7774648 Z M290.96338,14.3183099 L288.473239,16.8084507 L288.760563,15.4197183 L290.771831,13.4084507 L290.96338,14.3183099 Z M287.419718,24.9492958 L288.377465,24.9492958 L286.461972,26.8647887 L286.797183,25.571831 L287.419718,24.9492958 Z M290.723944,13.2169014 L288.808451,15.1323944 L289.095775,13.743662 L290.532394,12.3070423 L290.723944,13.2169014 Z M290.532394,12.0676056 L289.191549,13.4084507 L289.478873,12.0197183 L290.340845,11.1577465 L290.532394,12.0676056 Z M290.292958,10.9661972 L289.526761,11.7323944 L289.814085,10.343662 L290.149296,10.0084507 L290.292958,10.9661972 Z M289.861972,10.056338 L290.005634,9.43380282 L290.101408,9.86478873 L289.861972,10.056338 Z M286.078873,28.6366197 L286.414085,27.2 L288.616901,24.9971831 L289.71831,24.9971831 L286.078873,28.6366197 Z" transform="translate(-102.000000, -93.000000) translate(102.000000, 93.000000)"/>
    <path d="M321.228169,31.5098592 L320.988732,30.743662 L322.425352,29.3070423 L322.425352,29.0676056 L320.892958,30.6 L320.605634,29.7859155 L322.377465,27.9661972 L322.377465,27.7267606 L320.509859,29.5943662 L320.509859,29.5943662 L320.509859,28.4929577 L322.377465,26.6253521 L322.377465,26.3859155 L320.509859,28.2535211 L320.509859,27.1521127 L322.377465,25.284507 L322.377465,25.0450704 L320.509859,26.9126761 L320.509859,25.8112676 L322.377465,23.943662 L322.377465,23.7042254 L320.509859,25.571831 L320.509859,24.4225352 L322.377465,22.5549296 L322.377465,22.315493 L320.509859,24.1830986 L320.509859,23.0816901 L322.377465,21.2140845 L322.377465,20.9746479 L320.509859,22.8422535 L320.509859,21.7408451 L322.377465,19.8732394 L322.377465,19.6338028 L320.509859,21.5014085 L320.509859,20.4 L322.377465,18.5323944 L322.377465,18.2929577 L320.509859,20.1605634 L320.509859,19.0591549 L322.377465,17.1915493 L322.377465,16.9521127 L320.509859,18.8197183 L320.509859,17.7183099 L322.377465,15.8507042 L322.377465,15.6112676 L320.509859,17.4788732 L320.509859,16.3774648 L322.377465,14.5098592 L322.377465,14.2704225 L320.509859,16.1380282 L320.509859,15.0366197 L322.377465,13.1690141 L322.377465,12.9295775 L320.509859,14.7971831 L320.509859,13.6957746 L322.377465,11.828169 L322.377465,11.5887324 L320.509859,13.456338 L320.509859,12.3549296 L322.377465,10.4873239 L322.377465,10.2478873 L320.509859,12.115493 L320.509859,11.0140845 L322.377465,9.14647887 L322.377465,8.90704225 L320.509859,10.7746479 L320.509859,9.67323944 L322.377465,7.8056338 L322.377465,7.56619718 L320.509859,9.43380282 L320.509859,8.33239437 L322.377465,6.46478873 L322.377465,6.22535211 L320.509859,8.09295775 L320.509859,6.9915493 L322.377465,5.12394366 L322.377465,4.88450704 L320.509859,6.75211268 L320.509859,5.65070423 L322.664789,3.49577465 L322.760563,3.16056338 L320.509859,5.41126761 L320.509859,4.30985915 L322.425352,2.3943662 L322.28169,2.3943662 L320.605634,4.07042254 L320.605634,2.96901408 L321.180282,2.3943662 L320.940845,2.3943662 L320.605634,2.72957746 L320.605634,2.63380282 L321.276056,0.622535211 L314.811268,0.622535211 L315.48169,2.63380282 L315.48169,17.3352113 L314.859155,17.9577465 L314.523944,17.143662 L315.338028,16.3295775 L315.290141,16.1380282 L314.476056,16.9521127 L314.140845,16.1380282 L314.95493,15.3239437 L314.907042,15.1323944 L314.092958,15.9464789 L313.757746,15.1323944 L314.571831,14.3183099 L314.523944,14.1267606 L313.709859,14.9408451 L313.374648,14.1267606 L314.188732,13.3126761 L314.140845,13.1211268 L313.326761,13.9352113 L312.991549,13.1211268 L313.805634,12.3070423 L313.757746,12.115493 L312.943662,12.9295775 L312.608451,12.115493 L313.422535,11.3014085 L313.374648,11.1098592 L312.560563,11.9239437 L312.225352,11.1098592 L313.039437,10.2957746 L312.991549,10.1042254 L312.177465,10.9183099 L311.842254,10.1042254 L312.656338,9.29014085 L312.608451,9.09859155 L311.794366,9.91267606 L311.459155,9.09859155 L312.273239,8.28450704 L312.225352,8.09295775 L311.411268,8.90704225 L311.076056,8.09295775 L311.890141,7.27887324 L311.842254,7.08732394 L311.028169,7.90140845 L310.692958,7.08732394 L311.507042,6.27323944 L311.459155,6.08169014 L310.64507,6.89577465 L310.309859,6.08169014 L311.123944,5.26760563 L311.076056,5.07605634 L310.261972,5.89014085 L309.926761,5.07605634 L310.740845,4.26197183 L310.692958,4.07042254 L309.878873,4.88450704 L309.543662,4.07042254 L310.357746,3.25633803 L310.309859,3.06478873 L309.495775,3.87887324 L309.160563,3.06478873 L309.974648,2.25070423 L309.926761,2.05915493 L309.112676,2.87323944 L308.777465,2.05915493 L309.112676,1.72394366 L308.873239,1.72394366 L308.729577,1.91549296 L307.96338,3.40259902e-15 L302.216901,3.40259902e-15 L302.887324,2.01126761 L302.887324,29.0197183 L302.216901,30.9830986 L305.28169,30.9830986 L304.323944,31.9408451 L304.180282,32.3239437 L305.473239,31.0309859 L306.574648,31.0309859 L304.850704,32.8028169 L305.090141,32.8028169 L306.814085,31.0309859 L307.915493,31.0309859 L306.191549,32.8028169 L306.430986,32.8028169 L308.15493,31.0309859 L308.585915,31.0309859 L308.490141,30.6957746 L309.783099,29.4028169 L309.783099,29.1633803 L308.442254,30.5521127 L308.15493,29.7380282 L309.783099,28.1098592 L309.783099,27.8704225 L308.107042,29.5943662 L307.96338,29.1633803 L307.96338,28.684507 L309.830986,26.8169014 L309.830986,26.5774648 L307.96338,28.4450704 L307.96338,27.343662 L309.830986,25.4760563 L309.830986,25.2366197 L307.96338,27.1042254 L307.96338,26.0028169 L309.830986,24.1352113 L309.830986,23.8957746 L307.96338,25.7633803 L307.96338,24.6619718 L309.830986,22.7943662 L309.830986,22.5549296 L307.96338,24.4225352 L307.96338,23.3211268 L309.830986,21.4535211 L309.830986,21.2140845 L307.915493,23.4647887 L307.915493,22.3633803 L309.783099,20.4957746 L309.783099,20.256338 L307.915493,22.1239437 L307.915493,21.0225352 L309.783099,19.1549296 L309.783099,18.915493 L307.915493,20.7830986 L307.915493,19.6338028 L309.783099,17.7661972 L309.783099,17.5267606 L307.915493,19.3943662 L307.915493,18.2929577 L309.495775,16.7126761 L315.385915,31.5098592 L317.253521,31.5098592 L316.726761,32.0366197 L316.774648,32.228169 L317.492958,31.5098592 L318.594366,31.5098592 L317.109859,32.9943662 L317.157746,33.1859155 L318.785915,31.5098592 L319.887324,31.5098592 L318.16338,33.2816901 L318.402817,33.2816901 L320.126761,31.5098592 L321.228169,31.5098592 L321.228169,31.5098592 Z M315.433803,19.4422535 L315.290141,19.0112676 L315.433803,18.8676056 L315.433803,19.4422535 Z M315.433803,17.5267606 L315.433803,18.628169 L315.194366,18.8676056 L314.859155,18.0535211 L315.433803,17.5267606 Z M307.915493,15.6112676 L308.729577,14.7971831 L309.064789,15.5633803 L307.915493,16.7126761 L307.915493,15.6112676 L307.915493,15.6112676 Z M308.68169,14.6056338 L307.915493,15.371831 L307.915493,14.2704225 L308.346479,13.8394366 L308.68169,14.6056338 Z M308.298592,13.6478873 L307.915493,14.0309859 L307.915493,12.9295775 L307.96338,12.8816901 L308.298592,13.6478873 Z M307.915493,18.0535211 L307.915493,16.9521127 L309.112676,15.7549296 L309.447887,16.5211268 L307.915493,18.0535211 Z" transform="translate(-102.000000, -93.000000) translate(102.000000, 93.000000)"/>
  </g>
</svg>